<svg width="81" height="85" viewBox="0 0 81 85" fill="none" xmlns="http://www.w3.org/2000/svg">
<path d="M30.5839 66.1238C32.1452 65.9778 33.8219 65.8519 35.6182 65.7293C36.3631 65.6781 36.943 64.9343 36.3874 64.3185C36.0174 63.905 35.1709 63.6188 33.6687 63.772C32.3431 63.8578 31.0242 63.5231 29.9001 62.8154C29.0436 62.2131 27.9832 61.9751 26.9515 62.1537C26.7098 62.2228 26.4548 62.2314 26.209 62.1786C25.9632 62.1258 25.7341 62.0133 25.5421 61.8509C25.085 61.4472 24.763 60.9126 24.6198 60.3197C24.4929 59.945 24.4505 59.5469 24.4956 59.1538C24.5407 58.7608 24.6721 58.3826 24.8805 58.0463C25.2228 57.6174 26.1617 58.1046 27.0055 58.5433C29.6848 59.9352 26.8233 57.2254 26.0879 56.8031C25.1333 56.2398 24.0294 55.9819 22.924 56.0637C22.734 56.1429 22.573 56.2789 22.4631 56.4531C22.3533 56.6272 22.2999 56.831 22.3102 57.0366C22.2815 57.4305 22.3157 57.8265 22.4116 58.2096C23.3215 62.1504 27.0481 64.7127 30.5784 66.1284M53.8032 27.8981C53.8783 28.0067 53.9578 28.1158 54.0394 28.2238C54.3585 28.7091 54.7709 29.1261 55.2526 29.4507C55.7568 29.6884 56.3176 29.7799 56.8712 29.7149C56.8994 29.7038 56.9224 29.6825 56.9356 29.6552C56.9488 29.628 56.9514 29.5968 56.9427 29.5678C56.8963 29.3785 56.8103 29.2013 56.6903 29.0478C56.2481 28.389 55.628 27.8693 54.902 27.549C54.6805 27.5865 54.4645 27.6514 54.259 27.7425C54.1157 27.7941 53.9637 27.8496 53.8081 27.9015M55.5663 46.0147C56.09 46.2508 56.5675 46.5781 56.9766 46.9814C57.4063 47.3689 57.6444 47.5041 57.7693 47.4726C58.4566 47.3029 57.1753 45.5706 57.0628 45.4103C56.6551 44.8291 54.2025 41.2663 55.1747 44.2758C55.3889 44.8327 55.52 45.418 55.5637 46.013M34.1766 37.3909C34.3872 37.3698 34.5997 37.3991 34.7968 37.4763C34.9487 37.2106 35.05 36.9191 35.0955 36.6165C35.172 36.4163 35.2885 36.2337 35.438 36.0801C35.5874 35.9264 35.7666 35.8049 35.9647 35.7229C36.3186 35.502 36.6622 35.2875 36.5509 35.1003C36.2971 34.6736 36.1917 34.6314 36.1094 34.682C36.063 34.7119 36.0186 34.7449 35.9766 34.7806C35.8799 34.8841 35.7585 34.9612 35.6237 35.0045C35.4889 35.0479 35.3453 35.0561 35.2065 35.0284L35.1746 35.0237C35.0656 35.0269 34.9619 35.0719 34.885 35.1492C34.7917 35.2273 34.7239 35.3316 34.6904 35.4485C34.6871 35.4622 34.685 35.4761 34.6841 35.4901C34.6361 36.2247 34.4181 36.3961 34.1065 36.3789C33.9821 36.3635 33.8611 36.3279 33.7482 36.2736C33.5534 36.1941 33.3262 36.1 33.1507 36.3603C33.1453 36.3782 33.1445 36.3972 33.1485 36.4155C33.1787 36.5663 33.2437 36.7081 33.3384 36.8294C33.4536 36.9939 33.5969 37.1367 33.7619 37.2512C33.8796 37.3434 34.0251 37.393 34.1746 37.392M26.319 42.1548C26.2006 42.1191 26.0764 42.1071 25.9534 42.1193C25.7767 42.1408 25.6081 42.2063 25.4632 42.3098C24.8874 42.7041 24.5555 42.3272 24.2374 41.9655C24.0731 41.78 23.9148 41.5997 23.7699 41.6769C23.7082 41.7228 23.6377 41.7556 23.5628 41.7734C23.4879 41.7912 23.4102 41.7936 23.3344 41.7804C23.2586 41.7672 23.1862 41.7387 23.1218 41.6966C23.0573 41.6545 23.0021 41.5997 22.9595 41.5356C22.915 41.482 22.8592 41.439 22.796 41.4097C22.567 41.3433 22.5728 41.5763 22.8626 41.7331C23.0888 41.8555 23.1743 42.1507 23.2673 42.4884C23.3874 42.9059 23.5315 43.4058 23.9697 43.3962C24.2496 43.4025 24.5228 43.4833 24.7612 43.6302C24.9995 43.7771 25.1944 43.9849 25.3258 44.2322C25.4681 44.4307 25.4831 44.5264 25.7095 44.3499C25.7715 44.3016 25.823 44.241 25.8608 44.1721C25.9458 44.0002 25.9609 43.8021 25.9031 43.6193C25.8573 43.4086 25.8583 43.1903 25.9059 42.9799C25.9536 42.7695 26.0468 42.5722 26.179 42.4017C26.2261 42.3213 26.2736 42.24 26.3156 42.1562M27.3208 24.0334C27.285 23.9857 27.2638 23.9286 27.2596 23.8691C27.2554 23.8097 27.2685 23.7502 27.2973 23.698C27.4732 23.2582 28.9423 22.4496 30.5635 21.553C32.3796 20.5479 34.4055 19.4321 34.839 18.832C33.0118 19.2582 31.2366 19.8829 29.5452 20.6951C27.8872 21.4441 26.3393 22.4159 24.9443 23.5838C23.889 24.6534 24.5444 24.7456 25.6475 24.4993C26.1542 24.3863 26.7352 24.2186 27.3183 24.0317M38.1633 21.8731C37.0965 21.7286 36.0111 21.8176 34.9822 22.1339C34.7163 23.9589 35.3483 24.8674 36.2647 25.1912C37.1207 25.4328 38.0344 25.366 38.8462 25.0023C39.1955 24.8968 39.518 24.7172 39.7916 24.4756C40.0652 24.2341 40.2835 23.9364 40.4315 23.6028C40.5811 22.991 40.0181 22.3255 38.1638 21.8723M20.4095 68.1195C22.487 67.3409 24.6509 66.816 26.8543 66.5561C27.7423 66.4314 28.6786 66.3186 29.6631 66.2179C26.2322 64.7173 22.8812 62.1863 21.9862 58.3111C21.8794 57.8817 21.8419 57.4379 21.8753 56.9966C21.8687 56.6986 21.9574 56.4064 22.1285 56.1623C22.2996 55.9183 22.5441 55.7352 22.8264 55.6397C24.0404 55.537 25.2566 55.8098 26.3104 56.4213C27.0649 56.846 27.7241 57.4214 28.2468 58.1117C28.8884 59.081 28.7654 59.9484 26.8071 58.9305C26.1141 58.5705 25.3441 58.1707 25.2271 58.3174C25.0616 58.5991 24.9594 58.9135 24.9275 59.2387C24.8956 59.564 24.9348 59.8922 25.0425 60.2008C25.1613 60.7035 25.4309 61.158 25.8152 61.5032C25.9541 61.6214 26.1199 61.7036 26.2981 61.7425C26.4762 61.7815 26.6612 61.776 26.8367 61.7266C27.3994 61.6186 27.9779 61.6245 28.5382 61.744C29.0985 61.8635 29.6292 62.0942 30.0988 62.4224C31.1492 63.0861 32.381 63.4043 33.6214 63.3325C35.2904 63.1591 36.2599 63.5186 36.7115 64.0221C36.874 64.2171 36.9762 64.4552 37.0057 64.7073C37.0352 64.9595 36.9907 65.2148 36.8776 65.442C36.7645 65.6693 36.5877 65.8587 36.3688 65.9872C36.1499 66.1157 35.8983 66.1777 35.6447 66.1657C34.1894 66.2649 32.814 66.3689 31.5186 66.4778C32.9103 66.9764 34.3426 67.3536 35.7994 67.6049C38.8636 68.1341 41.9995 68.0868 45.0464 67.4657C45.8283 67.3064 46.6058 67.1071 47.379 66.8678C48.1521 66.6286 48.9064 66.3571 49.642 66.0531C55.0869 63.7959 59.5497 59.673 62.2303 54.4235C64.9108 49.1741 65.6337 43.1414 64.2694 37.4073C63.6461 34.7827 62.6209 32.2703 61.2302 29.9589C59.8712 27.6975 58.1569 25.6697 56.1531 23.9535C54.4652 22.5114 53.6139 22.2967 53.263 22.8368C52.8651 23.45 52.9553 24.9206 53.2063 26.7106C53.2755 26.9951 53.3949 27.265 53.5587 27.5078C53.7459 27.4483 53.9337 27.3808 54.1065 27.3177C54.3704 27.1957 54.654 27.1223 54.9438 27.1008C55.7957 27.4416 56.5276 28.027 57.0472 28.7832C57.2095 28.9913 57.3234 29.2329 57.3807 29.4905C57.4111 29.617 57.3929 29.7502 57.3298 29.8639C57.2668 29.9777 57.1633 30.0636 57.04 30.1049C56.3896 30.2179 55.7203 30.1289 55.122 29.8499C54.5521 29.4997 54.0655 29.0292 53.6964 28.4713C53.5818 28.3193 53.4709 28.1637 53.3688 28.0093C52.841 28.1357 52.3341 28.14 52.0568 27.7516C51.8943 27.5697 51.77 27.357 51.6911 27.1261C51.6123 26.8953 51.5807 26.6509 51.598 26.4076C51.6107 26.3603 51.6067 26.3102 51.5867 26.2655C51.5668 26.2209 51.532 26.1845 51.4884 26.1624C51.3658 26.081 51.2307 26.0204 51.0884 25.9831C51.0044 25.9591 50.9161 25.9548 50.8302 25.9707C50.7842 25.9797 50.7434 26.0062 50.7164 26.0446C50.7035 26.0661 50.6942 26.0896 50.6889 26.1141C50.5738 26.5852 50.3472 26.6905 50.0805 26.6264C49.8735 26.5491 49.6877 26.4238 49.5383 26.2609C49.4489 26.1789 49.489 26.0515 49.4295 26.0789C48.705 26.4201 48.5143 26.2951 48.2573 26.1326C48.1194 26.0322 47.9536 25.9773 47.783 25.9757C47.5202 25.9649 47.4481 25.9717 47.445 25.9889C47.453 26.0601 47.4698 26.1302 47.4949 26.1974C47.4989 26.2182 47.511 26.2432 47.5151 26.264C47.5875 26.5143 47.6991 26.5884 48.2151 26.9302L48.5666 27.1673C48.6805 27.2708 48.7728 27.396 48.8379 27.5356C48.903 27.6751 48.9397 27.8263 48.9458 27.9801C48.9987 28.4371 48.999 28.8986 48.9469 29.3556L48.9408 29.4094L48.9318 29.4227L48.9521 29.4158C48.9566 29.4092 48.963 29.4087 48.9643 29.412C48.9911 29.4925 49.0255 29.5702 49.0671 29.6441C49.092 29.6916 49.1234 29.7354 49.1602 29.7744C49.5591 29.6925 50.1716 30.1272 50.6313 30.4541L50.6977 30.4988C51.0489 30.6883 51.3226 30.9949 51.4712 31.3653C51.4936 31.4629 51.4819 31.5651 51.4383 31.6552C51.3947 31.7453 51.3216 31.8178 51.2312 31.8607C51.0613 31.9471 50.8747 31.9957 50.6842 32.0031C49.8526 32.048 49.0245 31.865 48.2893 31.4736C48.1593 31.3677 48.0093 31.2891 47.8482 31.2425C47.7611 31.2231 47.6783 31.1874 47.6044 31.1372C47.086 30.8009 46.9607 30.7936 46.7788 30.7843C46.5637 30.7762 46.3508 30.7371 46.1468 30.6681C45.9896 30.6187 45.9685 30.5141 45.9611 30.5429C45.9611 30.5429 45.9918 30.6262 46.0172 30.7013C46.0694 30.8366 46.1168 30.9577 46.0551 31.0813C45.9775 31.2376 45.8227 31.2865 45.5274 31.1343C45.4452 31.0934 45.317 31.1709 45.1857 31.2512C44.8396 31.4604 44.476 31.6795 44.0094 31.1141C43.9619 31.0464 43.8946 30.9951 43.8167 30.9672C43.7914 30.9612 43.7649 30.9621 43.7401 30.9699C43.7051 30.9826 43.6726 31.0016 43.6444 31.0259C43.5351 31.1219 43.4562 31.2476 43.4173 31.3878C43.3526 31.6625 43.9509 31.8681 44.5358 32.0684C44.8812 32.1702 45.2132 32.3131 45.5246 32.494C45.8728 32.7288 46.0144 33.0196 45.7388 33.4283C45.6125 33.6027 45.442 33.7401 45.2447 33.8263C45.0474 33.9126 44.8307 33.9445 44.617 33.9188C44.2373 33.9256 44.1807 34.1311 43.9646 34.4641C43.7077 34.8613 43.6643 34.9273 42.6003 34.9298C41.958 34.9308 42.162 35.4277 42.9926 35.573C43.2452 35.6316 43.5095 35.6132 43.7516 35.5204C44.2636 35.228 44.7508 34.8943 45.2084 34.5225L45.3567 34.426C46.1512 33.9041 46.2972 33.8663 46.7578 34.7123C46.8182 34.823 46.8877 34.9507 46.9534 35.0661C47.1893 35.6118 47.3191 36.1974 47.3359 36.7917C47.3951 37.2759 47.3113 37.7669 47.0949 38.2041C46.6063 38.7907 45.9266 39.1863 45.1753 39.3216C44.304 39.5477 43.3919 39.5662 42.5122 39.3758C42.1242 39.295 41.7239 39.2942 41.3356 39.3735C41.272 39.3859 41.211 39.4093 41.1553 39.4424C41.2216 39.5357 41.3068 39.6141 41.4053 39.6725C41.4426 39.6976 41.4753 39.6546 41.6286 39.6651C42.1691 39.6741 42.706 39.7554 43.2249 39.907C43.5132 40.044 43.8372 40.0871 44.1513 40.03C44.4664 39.9759 44.7902 40.0039 45.0912 40.1115C45.1535 40.1354 46.0112 40.4014 46.7056 40.6128C47.129 40.7415 47.5425 41.0565 47.6061 40.4578C47.7396 39.1599 47.9268 38.7446 48.2375 38.772C48.4534 38.797 48.6166 39.0397 48.8251 39.3564C49.004 39.6508 49.2161 39.9237 49.4573 40.1697C50.0724 40.8924 50.3759 41.8296 50.3013 42.7757C50.3622 43.8514 50.4188 44.8495 51.6872 45.0126C51.9256 45.0875 52.1447 45.2141 52.3286 45.3834C52.5125 45.5527 52.6569 45.7604 52.7513 45.9918C53.1248 46.5862 53.4718 47.2483 54.0746 46.5332C54.1833 46.3512 54.3361 46.1995 54.5188 46.0919C54.7016 45.9844 54.9084 45.9245 55.1203 45.9178C55.0555 45.4048 54.9314 44.9011 54.7505 44.4167C54.1049 42.4233 54.6401 42.2162 55.3539 42.7421C56.1409 43.4568 56.8324 44.2701 57.4113 45.1617C57.7281 45.6165 59.1137 47.5928 57.8641 47.9007C57.5934 47.9677 57.2262 47.8094 56.6734 47.3112C56.3256 46.9671 55.9211 46.6855 55.4778 46.4785C55.4547 46.5396 55.4248 46.5979 55.3884 46.6522C55.1164 46.9838 54.8223 47.2968 54.5083 47.589C54.2416 47.8916 54.149 48.2078 54.7281 48.7188C55.724 49.599 55.7102 49.7429 55.6897 50.0076C55.6823 50.0991 55.6697 50.2161 55.8383 50.5347C56.3945 51.6092 57.4336 51.4899 57.4231 53.6535C57.4195 54.6978 57.0053 56.6374 55.5582 55.8594C55.2493 55.6933 54.5848 55.0584 54.3414 55.0582C53.6777 55.0526 53.019 54.9433 52.3891 54.7343C51.7469 54.5216 51.1265 54.2482 50.5362 53.9178C50.3717 53.8273 50.0094 53.9677 49.6506 54.1081C49.4512 54.1915 49.2461 54.2608 49.0369 54.3153C47.8067 54.5964 48.6608 53.3888 46.9412 53.1651C46.39 53.0979 45.8316 53.1209 45.2878 53.2331C44.7394 53.3578 44.3659 53.7741 44.0991 53.0985C44.0695 53.0243 43.3984 52.181 43.3935 52.1777C43.3413 52.1352 43.2827 52.1014 43.2198 52.0775C43.0928 52.028 43.0379 52.0646 43.0129 52.1285C42.9767 52.2481 42.955 52.3715 42.9483 52.4962C42.9021 52.9618 42.7475 53.1374 42.2322 53.0986C42.0658 53.0801 41.9018 53.0439 41.743 52.9907C41.2545 52.8711 41.4237 53.8004 41.439 54.0495C41.452 54.2681 41.2896 54.407 40.3625 55.2061C39.9324 55.5757 39.716 56.0701 39.1693 55.9849C39.1177 55.9711 39.0635 55.9696 39.0112 55.9807C38.9589 55.9917 38.91 56.015 38.8683 56.0485C38.4064 56.4027 37.2739 56.1238 36.6793 56.1401C36.3574 56.1902 36.0279 56.1543 35.7243 56.036C35.4208 55.9177 35.1539 55.7212 34.9507 55.4665C34.8001 55.2875 34.6181 55.1373 34.4137 55.0236C33.5187 54.5624 33.6356 53.4859 33.5411 52.6371C33.4862 52.39 33.3683 52.1614 33.1988 51.9734C32.969 51.7256 32.826 51.4099 32.7911 51.0738C32.7726 50.2715 32.4989 50.1605 32.2908 50.0756C31.6206 49.8034 31.8804 49.3322 31.9342 48.7088C31.9809 48.1602 32.0077 47.8576 32.3349 47.6175C32.9299 47.1553 32.5523 46.8729 32.7595 46.2866C32.8183 46.1196 32.8464 45.9433 32.8427 45.7663C32.8738 45.4126 32.8039 45.0573 32.6412 44.7417C32.5398 44.5116 32.4979 44.2598 32.5193 44.0093C32.5407 43.7589 32.6247 43.5178 32.7635 43.3083C32.8216 43.2032 32.9009 43.1113 32.9963 43.0383C33.1056 42.9563 33.242 42.9189 33.3778 42.9339C33.4747 42.9449 33.5681 42.9766 33.6516 43.0268C34.4174 43.472 34.2814 43.7023 34.1554 43.9285C34.1554 43.9285 34.0896 44.0047 34.101 44.0522C34.1192 44.1308 34.391 44.2803 34.4424 44.0412C34.4639 43.9163 34.5289 43.8031 34.6258 43.7214C34.7228 43.6398 34.8455 43.5952 34.9722 43.5953C35.414 43.5411 35.4095 43.1955 35.5179 43.0383C35.6711 42.8112 35.7717 42.6619 36.062 42.8143C36.1368 42.8674 36.227 42.8941 36.3185 42.8904C36.4101 42.8867 36.4978 42.8526 36.568 42.7937C36.7285 42.6451 36.7243 42.3383 36.5526 42.2889C36.0772 42.1516 36.0801 41.9703 36.1496 41.7277C36.2074 41.5786 36.2997 41.4454 36.419 41.339C36.4844 41.2723 36.5454 41.2014 36.6017 41.1269C36.7988 40.8667 37.0689 40.671 37.3776 40.5647C37.5955 40.4705 37.7848 40.3883 37.8154 40.1461C37.9028 39.8063 38.0594 39.4882 38.2754 39.2117C38.4005 39.0328 38.5118 38.8445 38.6081 38.6486C38.6769 38.4912 38.6878 38.3623 38.5564 38.305C38.3443 38.1587 38.1655 37.9691 38.0319 37.7487C37.8998 37.527 37.7259 37.333 37.5197 37.1778L37.4854 37.5165C37.4373 37.7448 37.3677 37.9679 37.2773 38.1829C37.1699 38.4855 37.0317 38.7762 36.8647 39.0504C35.9452 39.7219 35.773 39.5768 35.5507 39.3896C35.5166 39.3565 35.4748 39.3324 35.429 39.3197C35.3832 39.307 35.335 39.3059 35.2887 39.3166C34.9568 39.3617 34.8231 39.2631 34.7983 39.08C34.8029 38.9239 34.8689 38.776 34.9819 38.6683C35.0225 38.6154 35.0599 38.5601 35.0936 38.5025L35.1004 38.4926C35.1207 38.459 35.129 38.4196 35.124 38.3807C35.112 38.3078 35.0813 38.2393 35.0349 38.1819C35.0028 38.1395 34.9665 38.1004 34.9265 38.0654C34.8339 38.1808 34.733 38.2893 34.6245 38.3899C34.1042 38.8584 33.4579 39.164 32.7657 39.2687C32.6952 39.2802 32.587 39.2869 32.4516 39.2981C32.0313 39.3053 31.614 39.3705 31.2116 39.4918C30.9326 39.5979 30.7447 39.7799 30.8659 40.1028C30.9966 40.4454 31.2628 40.3922 31.5776 40.3295C31.7707 40.2842 31.9682 40.2601 32.1665 40.2575C32.4225 40.2614 32.6782 40.2378 32.9292 40.1869C33.2068 40.1329 33.824 40.1619 34.0098 40.4103C34.2632 40.7499 33.6512 40.8848 33.8121 41.0825C33.9731 41.2803 34.4086 41.0422 34.5302 42.0117C34.5656 42.2937 34.4394 42.5667 33.9934 42.4662C33.6671 42.4286 33.3661 42.2717 33.1486 42.0255C33.0599 41.9203 32.9478 41.8373 32.8212 41.7831C32.5816 41.6806 32.5015 41.8388 32.0755 41.8965C31.7225 41.9442 31.4768 42.0885 31.0745 42.138C30.8283 42.1686 30.6102 42.1952 30.528 42.3725C30.2526 42.9598 30.4313 43.2009 30.6122 43.4459C30.7776 43.6239 30.8885 43.8456 30.9318 44.0847C30.9751 44.3237 30.949 44.5702 30.8567 44.7949C30.7986 44.9776 31 45.1099 31.1963 45.2374C31.5409 45.4613 31.8767 45.6805 31.6641 46.1763C31.5934 46.3626 31.5518 46.5588 31.541 46.7578C31.5004 47.1489 31.4685 47.4662 31.0278 47.6369C30.845 47.712 30.6729 47.8109 30.5159 47.931C30.0669 48.2517 29.8429 48.4105 29.2834 47.5895C29.2296 47.518 29.1609 47.459 29.0822 47.4166C29.0034 47.3741 28.9164 47.3491 28.8271 47.3433C28.6519 47.3316 28.4834 47.2714 28.3405 47.1693C28.1976 47.0672 28.086 46.9273 28.0182 46.7653C27.7764 46.206 27.7122 45.5859 27.834 44.9889C27.8779 44.699 27.89 44.4051 27.8702 44.1125C27.7882 43.7442 27.63 43.3971 27.4056 43.0937C27.223 42.8176 26.9938 42.5753 26.7282 42.3777L26.7058 42.3626C26.6579 42.4569 26.605 42.5479 26.5527 42.638C26.4543 42.761 26.3827 42.9031 26.3423 43.0553C26.302 43.2075 26.2939 43.3665 26.3184 43.522C26.4054 43.8123 26.3761 44.1251 26.2367 44.3943C26.1706 44.516 26.0801 44.6229 25.9708 44.7082C25.5323 45.0492 25.2523 44.9063 24.9619 44.5018C24.8665 44.317 24.7252 44.1598 24.5516 44.0453C24.3779 43.9307 24.1778 43.8627 23.9704 43.8476C23.1957 43.8644 23.0007 43.1878 22.8384 42.6237C22.7693 42.3829 22.706 42.1727 22.6447 42.1313C22.5354 42.0848 22.4377 42.0148 22.3586 41.9262C22.2795 41.8377 22.2209 41.7327 22.187 41.6189C22.1691 41.5259 22.1776 41.4298 22.2116 41.3414C22.2456 41.2531 22.3037 41.1761 22.3794 41.1191C22.4528 41.06 22.5391 41.0189 22.6312 40.999C22.7234 40.9791 22.8189 40.9809 22.9102 41.0043C23.0469 41.0495 23.1686 41.1315 23.2617 41.2413C23.3334 41.3138 23.4057 41.3855 23.555 41.3053C24.0055 41.0664 24.2762 41.3731 24.5577 41.6908C24.7509 41.9103 24.953 42.1382 25.2099 41.9629C25.4137 41.8183 25.6506 41.7272 25.8988 41.6978C26.0837 41.6787 26.2705 41.6973 26.4481 41.7523C26.4556 41.6908 26.4571 41.6288 26.4524 41.567L26.4416 41.4042C26.409 41.0556 26.4202 40.7042 26.4752 40.3584C26.4459 40.0135 26.5306 39.6686 26.7163 39.3766C26.8698 39.1364 27.3801 38.6122 27.7386 38.7333C27.8704 38.7775 27.8924 38.8539 27.8325 38.6495C27.4674 37.4024 29.0274 37.0759 28.9003 36.5669C28.8951 36.5478 28.7494 36.5689 28.3501 36.6675C28.1421 36.7275 27.9209 36.7244 27.7146 36.6586C27.5615 36.6053 27.4312 36.5013 27.3454 36.3638C27.2658 36.2323 27.227 36.0802 27.2337 35.9267C27.2407 35.7302 27.3076 35.5405 27.4254 35.3831C27.5217 35.2527 27.8175 35.2254 27.4762 35.2219C27.3095 35.2345 27.1429 35.1969 26.9978 35.114C26.7964 34.971 26.7229 34.7188 27.0528 34.2527C27.0717 34.2251 27.0885 34.1961 27.1029 34.1659C27.1392 34.0974 27.1553 34.0201 27.1496 33.9429C27.1279 33.8706 27.0894 33.8046 27.0371 33.7503C26.9848 33.6959 26.9203 33.6548 26.849 33.6304C26.6097 33.5149 26.4164 33.9357 26.2298 34.3393C26.1226 34.6738 25.9186 34.9689 25.6436 35.1873C25.2912 35.3754 24.8813 35.1786 24.3304 34.1463C24.191 33.8933 24.0307 33.6525 23.8511 33.4264C23.5736 33.0921 23.2679 33.6939 23.5927 33.8454C23.8545 33.9478 24.0813 34.1236 24.2455 34.3519C24.4098 34.5801 24.5046 34.8509 24.5185 35.1317C24.5697 35.3268 24.6962 35.4936 24.8702 35.5956C25.0645 35.7289 25.2972 35.7947 25.5326 35.783C26.1651 35.7392 26.3101 36.3253 26.4008 36.6808C26.4179 36.7466 26.3901 36.7592 26.4103 36.7776C27.1106 37.438 27.2999 37.8405 27.0518 38.076C26.8542 38.2636 26.3322 38.2275 25.5402 38.0661C25.4575 38.0482 25.3762 38.024 25.2971 37.9939C25.252 37.9763 25.2059 37.9617 25.1589 37.9501C25.0684 37.9325 24.9871 38.0441 24.8524 38.7625C24.8036 39.1551 24.6252 39.5203 24.3455 39.8003C24.2102 39.9219 24.0363 39.9918 23.8545 39.9978C23.6727 40.0038 23.4945 39.9454 23.3515 39.833C23.0467 39.5853 22.8341 39.2424 22.7479 38.8592C22.7018 38.6998 22.6644 38.5381 22.6357 38.3747C22.0364 38.1528 21.8964 37.9474 22.0435 37.3411C22.2073 36.6653 22.3818 35.9702 21.6923 35.7319C21.418 35.6382 21.124 35.6175 20.8393 35.6717C20.1198 35.8088 19.2986 36.4561 18.82 38.239C18.4996 39.4109 18.4928 40.6464 18.8002 41.8218C19.1104 42.9704 19.103 44.1816 18.779 45.3264C17.9808 48.8654 20.3152 50.5059 21.8818 51.6056C22.3038 51.8726 22.694 52.1867 23.0449 52.5419C23.9795 53.64 22.9545 53.7918 22.333 53.9214C21.8921 54.0136 21.6156 54.5363 21.3363 55.0667C21.2207 55.2865 21.1016 55.5114 20.9671 55.7162C20.8299 56.03 20.5796 56.2808 20.266 56.4185C19.9523 56.5563 19.5983 56.5709 19.2744 56.4596C18.3118 56.147 18.0638 55.4166 17.577 54.5469C15.7193 51.2085 14.7169 47.4622 14.6592 43.6422C14.5941 39.0952 15.7532 34.6143 18.0151 30.6693C18.7468 29.4584 19.5483 28.2913 20.4157 27.1736C21.2005 26.1797 22.2034 24.7371 22.5138 26.6697C22.6788 27.7144 22.8646 27.4996 22.5363 28.7001C22.3619 29.1353 22.297 29.6067 22.3474 30.0729C22.4275 30.2475 22.7144 30.2709 23.4126 29.9687C23.7648 29.8166 24.3471 30.1924 24.9626 30.5906C25.559 30.9758 26.1999 31.3899 26.478 31.294C26.7817 31.1889 26.7511 30.4025 25.965 28.1311C25.7426 27.4987 26.5278 26.9549 27.3332 26.4006C27.8557 26.1156 28.3041 25.7121 28.6425 25.2225C28.7477 24.9522 28.5726 24.6592 27.8674 24.3297C27.1357 24.5743 26.3805 24.8018 25.7375 24.9435C23.854 25.3617 22.7554 25.1865 24.6345 23.2868L24.6429 23.2744C26.0696 22.0771 27.6536 21.0807 29.3506 20.3131C30.9408 19.555 32.5999 18.951 34.3052 18.5095C35.583 18.2026 35.5671 18.7574 34.6577 19.5551C33.437 20.4724 32.1329 21.273 30.7624 21.9464C29.6994 22.4658 28.688 23.0848 27.7419 23.7952L27.883 23.8541C28.8006 23.5431 29.6687 23.2143 30.208 23.01C31.6592 22.5873 33.118 22.1444 34.5852 21.7891C34.6925 21.2385 34.8419 20.6971 35.0322 20.1694L35.0783 20.0474C35.8954 18.0273 38.7116 17.6458 41.7855 17.9374C44.5426 18.251 47.256 18.8717 49.8753 19.7879C50.1823 19.896 50.4457 19.9953 50.6569 20.081C51.43 20.3629 52.2547 20.4755 53.0751 20.4109C53.8956 20.3464 54.6925 20.1063 55.4121 19.7069C57.1947 18.7633 58.7994 17.5165 60.1542 16.0223C61.8521 14.2536 62.2198 14.504 60.4709 16.3251C59.0795 17.8573 57.4315 19.135 55.601 20.1009C54.8271 20.5282 53.9703 20.7838 53.0889 20.8505C52.2074 20.9172 51.3219 20.7934 50.4925 20.4875C50.2783 20.4009 50.0209 20.3033 49.7295 20.2008C47.1441 19.2964 44.4658 18.6836 41.7444 18.374C38.8468 18.1 36.2081 18.4238 35.4851 20.2131L35.4449 20.3175C35.285 20.7636 35.1543 21.2197 35.0536 21.6828C36.0926 21.3778 37.1855 21.3029 38.2564 21.4632C40.4208 21.9929 41.0523 22.877 40.8448 23.7247C40.681 24.1264 40.4307 24.487 40.1117 24.7809C39.7926 25.0747 39.4127 25.2946 38.999 25.4249C38.088 25.8277 37.0642 25.8966 36.1075 25.6194C35.0357 25.2416 34.2695 24.2317 34.514 22.2596C33.122 22.6053 31.7404 23.0231 30.3634 23.4235C29.8993 23.6002 29.1963 23.8666 28.4248 24.1362C29.0793 24.539 29.2083 24.9576 29.0436 25.3808C28.6817 25.9595 28.1761 26.4346 27.5759 26.7596C26.9035 27.2203 26.2578 27.67 26.3662 27.994C27.2619 30.5805 27.1532 31.525 26.6092 31.7129C26.1294 31.879 25.3953 31.4045 24.7116 30.9628C24.1942 30.6284 23.7114 30.3161 23.5746 30.3758C22.5754 30.8079 22.1136 30.6701 21.9339 30.2534C21.8276 29.6948 21.8856 29.1173 22.101 28.591C22.4083 27.4717 22.2342 27.7728 22.0691 26.7461C21.8816 25.5935 21.4159 26.6024 20.7487 27.4524C19.8945 28.5529 19.1051 29.7021 18.3844 30.8942C16.1614 34.7705 15.0219 39.1733 15.0854 43.6414C15.1424 47.4482 16.1558 51.1795 18.0324 54.4922C18.4119 55.1581 18.7052 55.9106 19.5061 56.0623C19.7249 56.0965 19.9489 56.0582 20.1439 55.9533C20.339 55.8484 20.4944 55.6826 20.5865 55.4812C20.709 55.2997 20.8199 55.0815 20.9314 54.8696C21.0309 54.5682 21.1917 54.2906 21.4037 54.0544C21.6157 53.8182 21.8743 53.6284 22.1633 53.497C22.4043 53.4401 23.2452 53.4825 22.6942 52.8348C22.3665 52.5089 22.0043 52.2198 21.6139 51.9725C19.9511 50.8043 17.4734 49.0599 18.3352 45.237C18.6422 44.1571 18.6501 43.0141 18.3582 41.9301C18.0329 40.6884 18.0398 39.3831 18.3781 38.1449L18.3837 38.1366C18.9175 36.1485 19.8878 35.4124 20.7442 35.253C21.1039 35.1844 21.4753 35.2105 21.822 35.3286C22.8448 35.6806 22.6718 36.5613 22.4552 37.4548C22.4022 37.6711 22.131 37.8319 22.8196 37.9875C22.8513 37.9906 22.8818 38.0005 22.9094 38.0164C22.9369 38.0322 22.9608 38.0538 22.9794 38.0796C23.0175 38.13 23.0391 38.1909 23.0414 38.254C23.067 38.422 23.1041 38.5881 23.1525 38.751C23.2126 39.0365 23.3652 39.2942 23.5868 39.484C23.6501 39.54 23.7322 39.5702 23.8167 39.5687C23.9012 39.5672 23.982 39.5341 24.0433 39.4759C24.2456 39.2592 24.3723 38.9829 24.4044 38.6883C24.6122 37.6056 24.8742 37.4639 25.2275 37.532C25.2961 37.5464 25.3634 37.566 25.429 37.5908C25.4887 37.614 25.55 37.6331 25.6123 37.648C26.2624 37.7801 26.6631 37.8369 26.7353 37.771C26.5518 37.5237 26.3369 37.3014 26.096 37.1095C26.0242 37.0207 25.9782 36.9138 25.9631 36.8005C25.9072 36.5795 25.812 36.2162 25.551 36.2331C25.2178 36.2509 24.8881 36.1586 24.6125 35.9706C24.4769 35.887 24.3593 35.7772 24.2668 35.6475C24.1742 35.5178 24.1086 35.3708 24.0738 35.2154C24.0655 35.0068 23.997 34.8051 23.8765 34.6347C23.7561 34.4642 23.5888 34.3322 23.395 34.2548C22.5067 33.8391 23.3233 32.5012 23.8859 32.8794C23.9959 32.9594 24.0943 33.0541 24.1784 33.161C24.3752 33.4096 24.551 33.6741 24.7039 33.9519C25.0974 34.69 25.3024 34.8777 25.4239 34.8137C25.6034 34.6318 25.7387 34.4111 25.8192 34.1685C26.0975 33.5663 26.3867 32.9389 27.0268 33.2487C27.1653 33.302 27.2879 33.3899 27.3831 33.5038C27.4782 33.6178 27.5427 33.7541 27.5705 33.8999C27.5877 34.0613 27.5579 34.2242 27.4845 34.369C27.4589 34.4212 27.4291 34.4713 27.3956 34.5188C27.2114 34.7793 27.1387 34.7942 27.4656 34.7976C27.5137 34.796 27.5617 34.7997 27.609 34.8086C28.151 34.9329 28.2882 35.1158 28.2422 35.3092C28.2008 35.485 28.0059 35.5683 27.8392 35.6404C27.7955 35.6627 27.757 35.6939 27.7262 35.732C27.6953 35.7701 27.6727 35.8142 27.6599 35.8615C27.6471 35.9089 27.6442 35.9583 27.6516 36.0068C27.659 36.0553 27.6765 36.1017 27.7029 36.143C27.7377 36.1966 27.7897 36.2367 27.8503 36.2569C27.975 36.2928 28.1074 36.2916 28.2314 36.2534C28.9431 36.076 29.2447 36.201 29.3118 36.4717C29.5231 37.3209 27.9557 37.5725 28.238 38.5382C28.271 38.6307 28.2868 38.7284 28.2847 38.8266C28.2654 39.068 28.1158 39.1951 27.6287 39.1609C27.3972 39.2533 27.2001 39.4154 27.065 39.6249C26.9289 39.8427 26.8693 40.0996 26.8959 40.355L26.8977 40.3792L26.8956 40.3983C26.8426 40.7205 26.8303 41.0481 26.8592 41.3734L26.8732 41.5457C26.8824 41.6807 26.8722 41.8164 26.8428 41.9485C26.8815 41.9746 26.9205 42.0008 26.9597 42.0273C27.2682 42.2551 27.5345 42.535 27.7465 42.8545C28.011 43.2178 28.1945 43.6335 28.2847 44.0737C28.3092 44.398 28.2972 44.7241 28.2491 45.0458C28.1417 45.5607 28.1917 46.0961 28.3924 46.5823C28.4372 46.6791 28.5076 46.7618 28.596 46.8214C28.6844 46.881 28.7875 46.9153 28.894 46.9205C29.0404 46.9324 29.1823 46.9771 29.309 47.0513C29.4358 47.1255 29.5443 47.2273 29.6263 47.3492C29.9365 47.7995 30.0372 47.7288 30.2427 47.5815C30.4291 47.4393 30.6336 47.3225 30.8507 47.2341C31.0422 47.1595 31.0629 46.9624 31.0878 46.7199C31.1021 46.4762 31.1551 46.2364 31.2449 46.0094C31.3123 45.8522 31.1285 45.7331 30.9403 45.6099C30.6048 45.3921 30.2632 45.1689 30.4216 44.6692C30.4859 44.5092 30.5031 44.3341 30.4713 44.1646C30.4395 43.9951 30.3599 43.8382 30.242 43.7124C30.0535 43.5106 29.9383 43.2513 29.9149 42.9762C29.8916 42.701 29.9615 42.426 30.1133 42.1953C30.2973 41.7973 30.6278 41.756 31.0027 41.7097C31.3776 41.6635 31.6327 41.5195 31.9981 41.4693C32.1602 41.4471 32.1969 41.5322 32.3921 41.3876C32.4812 41.3381 32.5814 41.3121 32.6834 41.312C32.7853 41.312 32.8856 41.3379 32.9747 41.3874C33.3402 41.5446 33.2745 41.8692 33.945 42.0766C34.2072 42.1581 34.1254 41.6302 33.7881 41.4438C33.5059 41.374 33.1217 41.1801 33.4196 40.7383C33.5147 40.5973 33.4332 40.575 33.3201 40.5783C33.2074 40.5863 33.0954 40.6018 32.9848 40.6248C32.7058 40.681 32.4215 40.7069 32.137 40.7018C31.9701 40.706 31.8041 40.7274 31.6416 40.7658C31.1305 40.8674 30.6972 40.9538 30.4352 40.2658C30.3801 40.1509 30.3523 40.0248 30.3539 39.8974C30.3554 39.77 30.3863 39.6447 30.4441 39.5311C30.5019 39.4175 30.5851 39.3188 30.6872 39.2426C30.7893 39.1663 30.9075 39.1146 31.0328 39.0915C31.477 38.9531 31.9386 38.8786 32.4037 38.8702C32.5279 38.8647 32.6223 38.8572 32.6711 38.8492C33.2783 38.7582 33.8454 38.4911 34.3022 38.081C34.3741 38.0141 34.442 37.9432 34.5058 37.8685C34.4049 37.842 34.3001 37.8338 34.1964 37.8444C33.9448 37.8591 33.6961 37.7848 33.4937 37.6347C33.2856 37.4899 33.1047 37.3096 32.9593 37.1019C32.8212 36.92 32.7292 36.7073 32.6911 36.4821C32.6731 36.3609 32.6991 36.2372 32.7645 36.1336C33.139 35.5782 33.5447 35.7456 33.8939 35.8894C33.9637 35.9232 34.0377 35.9475 34.114 35.9619C34.1622 35.9654 34.2001 35.868 34.2263 35.4805C34.2291 35.4437 34.2347 35.4072 34.2432 35.3713C34.2974 35.1654 34.4126 34.9807 34.5738 34.8417C34.738 34.6863 34.9569 34.6021 35.1829 34.6073C35.2166 34.6095 35.2501 34.6144 35.283 34.6217C35.4353 34.6568 35.5634 34.5527 35.6793 34.4595C35.7373 34.4101 35.7988 34.365 35.8633 34.3244C36.1635 34.1457 36.4615 34.1525 36.9038 34.897C37.2342 35.4514 36.7109 35.7786 36.1733 36.1144C35.8587 36.311 35.5356 36.5129 35.5064 36.703C35.4526 37.0592 35.3333 37.4023 35.1544 37.715C35.2345 37.7789 35.3064 37.8525 35.3684 37.9341C35.4621 38.0539 35.522 38.1968 35.5417 38.3476C35.5576 38.483 35.5274 38.6199 35.456 38.736C35.4253 38.7884 35.3913 38.8388 35.3542 38.8869C35.4383 38.8857 35.5217 38.9014 35.5995 38.9332C35.6774 38.965 35.748 39.0121 35.8072 39.0717C35.8845 39.1359 35.9397 39.1828 36.5812 38.7145L36.844 38.0403C36.9202 37.8614 36.9816 37.6765 37.0274 37.4875C37.0892 36.9165 37.2832 36.729 37.5496 36.7542C37.8329 36.7848 38.1116 37.1585 38.3649 37.4981C38.4637 37.6511 38.581 37.7913 38.714 37.9156C39.1573 38.1096 39.1625 38.4435 38.991 38.8356C38.8851 39.0545 38.762 39.2646 38.6227 39.464C38.4485 39.6879 38.3162 39.9416 38.2324 40.2126C38.209 40.3964 38.1294 40.5684 38.0045 40.7052C37.8797 40.842 37.7157 40.937 37.5348 40.9771C37.3014 41.0558 37.0954 41.1998 36.9414 41.3922C36.8742 41.4828 36.8009 41.5687 36.7221 41.6495C36.4652 41.9249 36.5196 41.8639 36.9228 41.9778C37.0138 42.0106 37.0899 42.0754 37.1368 42.16C37.1837 42.2447 37.1984 42.3434 37.178 42.4381C37.1686 42.5614 37.1375 42.682 37.086 42.7945C36.877 43.2565 36.4821 43.5112 35.9873 43.2524C35.7893 43.1972 35.6873 43.9871 35.0059 44.0461C34.8505 44.062 34.8394 44.2197 34.8328 44.3298C34.8405 44.438 34.8106 44.5457 34.748 44.6344C34.6163 44.7867 34.2611 44.6678 33.8884 44.3514C33.561 44.0715 33.6584 43.902 33.7585 43.7284C33.7831 43.6919 33.8033 43.6513 33.4143 43.4252C33.2697 43.3409 33.2017 43.4168 33.125 43.5484C33.024 43.6967 32.9614 43.8678 32.9429 44.0463C32.9245 44.2248 32.9507 44.405 33.0192 44.5709C33.216 44.9498 33.3011 45.3769 33.2645 45.8023C33.2681 46.0241 33.2317 46.2446 33.1571 46.4535C32.9491 47.0428 33.3903 47.3596 32.5819 47.9879L32.5791 47.992C32.4093 48.1187 32.3912 48.3477 32.3557 48.7687C32.3279 49.0889 32.1493 49.5738 32.4418 49.6926C32.7647 49.8236 33.1886 49.9961 33.214 51.0852C33.2544 51.3281 33.3659 51.5536 33.5344 51.733C33.7553 51.981 33.9032 52.2853 33.9619 52.6122C34.0314 53.262 33.9526 54.3232 34.5995 54.6569C34.8497 54.7922 35.0725 54.9731 35.2564 55.1903C35.4207 55.3946 35.6363 55.5518 35.8812 55.6458C36.1261 55.7397 36.3915 55.7671 36.6504 55.7251C37.0984 55.71 38.321 55.9302 38.59 55.7209C38.6763 55.6472 38.7791 55.5953 38.8896 55.5695C39.0001 55.5438 39.1152 55.5449 39.2252 55.5728C39.4272 55.6041 39.8602 55.0712 40.0644 54.8953C40.5647 54.4645 40.8017 54.265 40.928 54.1511C41.1347 53.9625 40.6287 52.261 41.6807 52.5555C42.558 52.9373 42.4377 52.463 42.5944 51.991C42.7057 51.7043 42.9222 51.5174 43.368 51.6914C43.4757 51.7326 43.5759 51.7912 43.6646 51.8649C43.9955 52.1851 44.2754 52.554 44.4947 52.9589C44.5503 53.1 44.9955 52.8708 45.1837 52.8313C45.778 52.7087 46.3884 52.6837 46.9908 52.7571C47.2905 52.7562 47.5854 52.833 47.8466 52.98C48.1078 53.127 48.3265 53.3391 48.4814 53.5958C48.4994 53.6407 48.5137 53.6871 48.5242 53.7344C48.5719 53.9391 48.7332 53.961 48.9328 53.9135C49.1206 53.8635 49.3048 53.8007 49.484 53.7256C49.9381 53.5494 50.3938 53.3743 50.7403 53.5597C51.3062 53.8767 51.9011 54.1389 52.5168 54.3428C53.1032 54.537 53.7164 54.6384 54.3341 54.6433C54.823 54.6425 55.3178 55.2608 55.7586 55.4977C56.8003 56.0578 56.976 54.295 56.9779 53.6753C56.9839 51.6991 55.985 51.7926 55.4436 50.7642C55.2939 50.5373 55.2246 50.2668 55.2466 49.9959C55.2572 49.8728 55.2625 49.8076 54.4311 49.0734C53.5752 48.3165 53.744 47.8104 54.1705 47.3299C54.4707 47.0504 54.7525 46.7518 55.0144 46.4361L55.02 46.4278C54.8935 46.4507 54.7731 46.4996 54.6665 46.5713C54.5598 46.643 54.4691 46.7359 54.4002 46.8444C53.5345 47.8706 52.9159 47.123 52.3711 46.2552C52.1344 45.8785 51.9064 45.5137 51.6209 45.4756C49.99 45.2635 49.9239 44.0901 49.8518 42.8271C49.9203 41.9951 49.6678 41.1685 49.146 40.517C48.8785 40.2482 48.6435 39.949 48.446 39.6253C48.3005 39.4066 48.1885 39.2346 48.1791 39.2342C48.1696 39.2339 48.1258 39.5601 48.0286 40.5305C47.9143 41.6352 47.3371 41.2931 46.5663 41.0591C45.8606 40.8449 44.9873 40.5732 44.9206 40.5524C44.6826 40.4719 44.4282 40.4526 44.1807 40.4961C43.7852 40.566 43.3777 40.5083 43.0172 40.3313C42.5487 40.2087 42.0675 40.142 41.5834 40.1327C41.4324 40.138 41.2818 40.1142 41.1398 40.0627C40.952 39.9534 40.8033 39.7878 40.7149 39.5893C40.6867 39.5125 40.6838 39.4287 40.7064 39.3501C40.7291 39.2714 40.7762 39.2021 40.8409 39.152C40.9502 39.066 41.0778 39.0063 41.214 38.9779C41.6743 38.8846 42.1489 38.8862 42.6086 38.9825C43.4178 39.1559 44.2563 39.1373 45.057 38.9283C45.7006 38.8179 46.2863 38.4887 46.7153 37.9964C46.8765 37.638 46.9349 37.2419 46.8838 36.8522C46.8816 36.3133 46.7764 35.7798 46.5737 35.2804C46.4852 35.1255 46.4254 35.014 46.3729 34.9183C46.0656 34.3493 46.1734 34.4112 45.5979 34.7889L45.4488 34.8849C44.978 35.2641 44.4779 35.6055 43.9534 35.9061C43.6258 36.0428 43.264 36.0755 42.9171 35.9996C42.5565 35.9458 42.2174 35.7943 41.9367 35.5616C41.834 35.4468 41.7794 35.297 41.7842 35.143C41.789 34.9891 41.8528 34.843 41.9624 34.7348C42.0453 34.6507 42.145 34.585 42.2551 34.542C42.3651 34.499 42.4829 34.4796 42.6009 34.4852C43.4282 34.4835 43.4525 34.4456 43.5999 34.2182C43.901 33.7519 44.0274 33.4839 44.6096 33.4736C44.7523 33.4933 44.8976 33.4763 45.0319 33.4242C45.1662 33.3721 45.285 33.2867 45.3771 33.1759C45.4677 33.0416 45.415 32.941 45.2807 32.8504C44.9995 32.6931 44.7014 32.5682 44.3922 32.478C43.6234 32.2141 42.8356 31.9446 42.9905 31.2821C43.0545 31.0525 43.1834 30.8463 43.3619 30.6884C43.4334 30.6277 43.5158 30.5813 43.6048 30.5518C43.7047 30.5198 43.8113 30.5155 43.9135 30.5393C44.086 30.5861 44.2382 30.6887 44.3462 30.8311C44.5738 31.1052 44.7711 30.9861 44.9586 30.8726C45.1256 30.7399 45.335 30.672 45.5481 30.6816C45.5201 30.5936 45.5183 30.4993 45.5428 30.4103C45.6077 30.2032 45.8029 30.0961 46.2816 30.2464C46.4506 30.3036 46.627 30.3361 46.8052 30.3427C47.1893 30.3659 47.555 30.5147 47.8463 30.7661C47.882 30.7892 47.9215 30.8056 47.963 30.8147C48.1737 30.8726 48.3704 30.9728 48.5411 31.1092C49.1888 31.4482 49.9164 31.6054 50.6463 31.564C50.7711 31.5607 50.894 31.5319 51.0072 31.4793C51.0278 31.4667 51.0401 31.4557 51.0377 31.4468C51.0139 31.3246 50.8377 31.1335 50.4409 30.8527L50.3738 30.8074C49.9743 30.5235 49.4344 30.1402 49.2461 30.2014C49.1927 30.2183 49.1361 30.2224 49.0808 30.2133C49.0256 30.2041 48.9733 30.1819 48.9283 30.1486C48.8259 30.0723 48.7417 29.9744 48.6816 29.8617C48.6256 29.762 48.5792 29.6572 48.5429 29.5487C48.5153 29.4704 48.5045 29.3871 48.5112 29.3043C48.5608 28.8858 48.5627 28.463 48.5168 28.0441C48.4817 27.801 48.4223 27.5994 48.3245 27.5334L47.9763 27.2986C47.352 26.8849 47.2197 26.7969 47.0995 26.3939L47.0801 26.3314C47.0369 26.2175 47.0132 26.0972 47.0102 25.9755C47.0222 25.6929 47.1956 25.5217 47.8023 25.5448C48.0525 25.5465 48.2959 25.6263 48.4985 25.7731C48.6336 25.8642 48.7356 25.933 49.2427 25.6925C49.4515 25.5921 49.6286 25.7585 49.8329 25.9457C49.9334 26.0544 50.0531 26.1437 50.1859 26.2091C50.2025 26.213 50.2269 26.168 50.2629 26.0198C50.28 25.9476 50.3092 25.8788 50.3493 25.8164C50.4362 25.6826 50.5725 25.5885 50.7284 25.5547C50.8822 25.5217 51.0416 25.5255 51.1937 25.5657C51.3832 25.6152 51.5632 25.6958 51.7263 25.8043C51.8443 25.8588 51.9396 25.9528 51.9959 26.07C52.0522 26.1871 52.066 26.3203 52.0349 26.4465C52.0237 26.6393 52.0514 26.8323 52.1162 27.0142C52.181 27.1961 52.2817 27.3631 52.4123 27.5053C52.5367 27.6785 52.8062 27.6866 53.1254 27.6245C52.9609 27.363 52.8429 27.075 52.7769 26.7732C52.5131 24.8913 52.431 23.3249 52.9015 22.6003C53.4202 21.8007 54.479 21.9455 56.4424 23.6228C58.4811 25.3692 60.2251 27.4325 61.6077 29.7335C63.0227 32.084 64.0659 34.6391 64.7003 37.3083C66.0837 43.1441 65.3456 49.2817 62.6181 54.6232C59.8906 59.9646 55.3516 64.1614 49.8132 66.4628C49.0593 66.776 48.2921 67.0523 47.5118 67.2915C46.7315 67.5306 45.9401 67.7319 45.1378 67.8951C42.0379 68.5275 38.8471 68.5759 35.7294 68.0377C33.947 67.7296 32.2013 67.2371 30.5206 66.5682C29.2349 66.6865 28.0387 66.8241 26.9194 66.9835C24.7504 67.2396 22.6203 67.7565 20.5752 68.523C17.4773 69.7854 17.1241 69.458 20.4095 68.1195ZM48.9317 29.4371L48.9178 29.4578C48.8965 29.4893 48.9323 29.4362 48.9582 29.4211L48.9317 29.4371ZM45.6674 30.8838L45.6763 30.8706C45.6611 30.9038 45.653 30.9212 45.6674 30.8838Z" stroke="black" stroke-width="0.49993"/>
</svg>
