<svg width="75" height="85" viewBox="0 0 75 85" fill="none" xmlns="http://www.w3.org/2000/svg">
<mask id="mask0_30_864" style="mask-type:luminance" maskUnits="userSpaceOnUse" x="0" y="0" width="75" height="85">
<path d="M0.911117 64.0674L32.6689 84.6968L74.0889 20.9328L42.3311 0.303435L0.911117 64.0674Z" fill="white"/>
</mask>
<g mask="url(#mask0_30_864)">
<path d="M14.5932 44.5925C14.5634 43.7714 14.4428 43.5201 14.546 43.1004C14.5702 43.0283 14.6213 42.9684 14.6886 42.9332C14.756 42.898 14.8343 42.8902 14.9073 42.9115C15.6545 43.0927 16.126 44.277 16.3835 45.0027C17.4468 47.9995 16.3926 49.9751 16.4487 52.8402C16.5105 56.0215 18.7423 57.5298 19.8634 60.0905C20.9753 62.7317 21.245 65.6517 20.6358 68.4519C21.7514 66.8943 22.8134 65.3842 23.8407 63.8982C23.4418 63.4839 23.2218 62.1218 23.0609 61.7488C21.9367 59.1359 17.8367 56.7017 17.7678 51.1988C17.7307 48.2328 18.9717 44.7154 17.619 41.6296C17.5166 41.3961 17.4051 41.1673 17.29 40.9387C17.262 40.8816 17.2533 40.817 17.2652 40.7546C17.2772 40.6922 17.309 40.6354 17.3561 40.5927C18.3489 39.775 19.3041 41.4322 19.6693 42.1538C21.2454 45.263 20.0558 49.1036 21.2535 52.2498C22.0448 53.8861 22.9451 55.4674 23.9484 56.9829C24.8387 58.5029 25.2516 60.2554 25.1334 62.0129C25.4993 61.4752 25.8624 60.9384 26.2225 60.4024C26.0327 60.1729 26.0618 59.7719 26.067 59.4902C26.1188 56.6868 23.7765 53.9674 23.0858 50.992C21.7377 45.17 26.8343 38.3948 24.901 33.1376C24.7902 32.8342 24.4643 32.3111 24.8733 32.0781C24.999 32.0312 25.1335 32.0123 25.2672 32.0228C25.401 32.0332 25.5308 32.0727 25.6477 32.1386C25.9043 32.2257 26.135 32.3756 26.3189 32.5746C26.8168 33.2473 27.1529 34.0258 27.3012 34.8494C28.6808 31.1334 30.5909 28.6997 31.4753 25.4135C31.5752 24.7818 31.7413 24.1623 31.9708 23.5653C32.0129 23.5014 32.0785 23.4566 32.1533 23.4407C32.2282 23.4248 32.3063 23.439 32.3708 23.4803C32.4323 23.5255 32.4897 23.5759 32.5424 23.6311C32.5773 23.6606 32.6069 23.6959 32.6297 23.7356C33.0429 24.5925 33.2302 25.5408 33.1737 26.4905C33.2046 27.5686 33.0771 28.6455 32.7952 29.6865C32.1423 32.0195 30.8521 34.127 30.2856 36.4886C29.4365 40.0327 31.0779 42.8228 31.3565 46.1498C31.5659 48.9189 31.1744 51.7005 30.2088 54.3042C31.0473 52.995 31.8927 51.6568 32.7571 50.2748C32.8538 49.5348 32.8061 48.783 32.6166 48.0612C32.4096 46.9198 32.3206 45.762 32.2114 44.6078C31.8219 40.4763 31.0375 36.8554 32.5321 32.2202C33.5105 29.186 34.8675 26.5386 35.8585 22.44C35.9487 22.0679 36.1382 21.0231 36.7177 21.1871C36.7874 21.2127 36.8511 21.2524 36.9048 21.3037C36.9585 21.355 37.0011 21.4168 37.0298 21.4853C37.3737 22.2377 37.534 23.0611 37.4974 23.8876C38.1918 21.8691 39.0822 19.9218 39.6946 17.8752C39.9902 16.889 40.2063 15.8808 40.3408 14.8602C40.3431 14.8438 41.0446 10.9115 41.0486 10.8962C41.0821 10.5601 41.4341 10.3652 41.6861 10.6256C42.1902 11.1463 43.1355 15.1604 42.4825 17.7689C42.0475 19.5038 41.1734 21.3196 40.7889 22.9584C40.0419 26.1286 41.4494 32.0429 40.4809 37.6019C41.1061 36.555 41.7343 35.5095 42.3655 34.4656C42.4667 33.4576 43.4765 32.0556 43.9106 31.042C46.6687 24.5922 47.4454 19.962 51.9109 13.6275C53.0419 11.8114 54.7879 10.4623 56.8306 9.82619C56.88 9.81662 56.931 9.81995 56.9787 9.83585C57.0263 9.85174 57.0691 9.87967 57.1029 9.91694C57.1366 9.95421 57.1601 9.99955 57.1712 10.0486C57.1823 10.0976 57.1806 10.1487 57.1661 10.1968C57.0313 10.6394 56.8089 11.0503 56.5123 11.4054C51.8542 17.8545 50.5357 28.3437 43.683 34.2465C43.4731 34.466 43.2144 34.6327 42.9278 34.7331C41.6545 37.0735 40.3202 39.3885 38.9489 41.6831C41.1903 39.3345 41.2956 37.0658 46.0642 33.7783C49.1598 31.6446 53.4439 29.7437 55.9396 25.9091C56.2486 25.4334 56.4825 24.9172 56.7674 24.4271C56.9026 24.1952 57.5097 23.3762 57.7656 23.9099C57.8248 24.1273 57.8357 24.3551 57.7974 24.5772C57.7863 24.8551 57.7693 25.1328 57.7462 25.4089C57.575 26.2874 57.297 27.1417 56.9183 27.9526C55.6887 30.7551 53.5576 33.0662 50.8638 34.5183C48.3133 36.0386 48.5923 35.5064 46.4899 37.8117C45.8533 38.5089 45.1714 39.1563 44.4778 39.7962C43.0884 41.0793 40.467 43.3278 38.5735 43.4364C38.3546 43.4637 38.1324 43.4438 37.9218 43.3781C37.5141 44.0486 37.1037 44.7177 36.6906 45.3855C38.6484 44.2486 40.3189 43.7708 42.2059 42.8658C44.3052 41.7518 46.2077 40.3011 47.8374 38.5712C49.7834 36.6774 52.865 33.4394 56.2177 32.3388C56.7416 32.1557 57.2905 32.054 57.8452 32.0372C58.1185 32.0465 58.385 32.1244 58.6202 32.2638C58.75 32.311 58.8681 32.3855 58.9666 32.4822C59.0651 32.5789 59.1418 32.6957 59.1913 32.8245C59.2814 33.2827 58.7132 33.3586 58.407 33.446C53.138 34.9458 50.4427 41.793 45.5554 44.8078C42.636 46.6097 39.1124 46.4361 36.4432 47.6323C35.8199 47.9451 35.2158 48.2949 34.6342 48.6798C34.1975 49.3704 33.7597 50.0604 33.3208 50.7495C36.3974 48.5367 39.7451 48.4613 42.7641 47.3253C44.7774 46.4826 46.6093 45.2595 48.1593 43.7231C49.6543 42.2695 51.3944 41.0916 53.2994 40.2438C53.9259 39.9927 54.5823 39.8236 55.2523 39.7407C55.8898 39.6776 56.7078 39.77 56.7474 40.5724C56.7435 40.6359 56.7192 40.6965 56.678 40.745C56.6368 40.7935 56.5809 40.8274 56.5188 40.8415C50.7122 42.7794 49.7113 47.6481 44.5895 50.464C41.3258 52.2594 37.643 52.32 35.3052 52.8188C34.5014 52.9307 33.7299 53.2094 33.0402 53.6369C32.0822 54.1659 31.4159 54.5324 31.0015 54.3658C30.321 55.4135 29.673 56.411 29.0575 57.3585C31.1887 55.5359 33.7724 54.3225 36.5359 53.8461C37.4961 53.6132 38.4481 53.3524 39.4077 53.1204C40.3673 52.8883 41.358 52.6764 42.2983 52.3436C45.355 51.2726 47.3164 48.4093 50.4442 47.8844C50.8787 47.8077 51.3225 47.7986 51.7598 47.8574C51.7804 47.8586 51.8009 47.8615 51.821 47.8661C52.1057 47.9401 52.3265 48.1587 52.1768 48.4754C51.8757 49.1078 50.0603 49.8254 46.7855 52.5967C45.0963 54.1492 43.2759 55.5524 41.3446 56.7908C38.7174 58.12 35.8945 59.0202 32.9828 59.4574C29.6744 60.1537 27.5669 61.0693 26.6507 60.9645C25.974 61.9732 25.3379 62.9121 24.7423 63.7811C26.9381 61.9997 29.6076 60.9006 32.4211 60.6196C34.1977 60.4816 36.0279 60.654 37.7393 60.0525C41.1323 58.866 42.6862 55.1331 47.2608 54.6365C47.6433 54.5654 48.038 54.6006 48.4019 54.7384C48.678 54.8461 48.833 55.0959 48.6258 55.3121C48.4356 55.4894 48.2167 55.6332 47.9785 55.7374C45.2399 57.169 43.6476 59.5908 40.9759 61.6229C38.6159 63.4195 36.9545 64.1883 32.9466 64.5877C30.0125 64.6768 27.1161 65.2733 24.3856 66.3506C22.8292 66.9871 22.7173 67.1961 22.4108 67.1353C22.1772 67.4656 21.9515 67.783 21.7337 68.0877C23.0006 67.4436 24.3875 67.0697 25.8065 66.9897C28.9395 66.7581 31.369 67.6204 34.6787 66.3106C37.3272 65.2656 39.913 63.2684 42.8559 62.9897C43.7549 62.9043 46.2029 62.7849 45.913 64.2763C45.8936 64.3371 45.8549 64.3898 45.8028 64.4266C45.7507 64.4634 45.688 64.4822 45.6243 64.4801C40.1162 64.7389 38.0043 69.1031 32.9924 70.5301C28.9864 71.6704 25.5666 70.1635 22.6713 70.268C22.5836 70.2707 22.4733 70.2789 22.425 70.2798C22.3945 70.2863 22.1381 70.3321 21.6797 70.4482C21.0866 70.6542 20.459 70.7425 19.8321 70.7084C18.6455 72.3129 17.7936 73.4094 17.1917 74.1983C16.8941 74.5884 16.3873 74.2723 16.6883 73.8713C17.5917 72.6496 18.4551 71.471 19.2881 70.3227C19.2495 70.2618 19.2235 70.1938 19.2116 70.1227C18.8494 67.1569 17.8102 64.314 16.1744 61.8137C15.1898 60.3093 14.4002 58.686 13.8246 56.9826C13.333 54.967 13.2956 52.8673 13.715 50.8354C14.2198 48.7894 14.5162 46.6975 14.5996 44.5919M36.6075 21.959C36.3506 22.6392 36.4908 22.6897 35.5208 25.7257C34.4171 29.1843 32.8121 32.1694 32.3871 35.4187C31.9836 38.5102 32.4752 41.3218 32.7611 44.261C32.8688 45.3808 32.9522 46.5051 33.1319 47.6169C33.2098 48.0993 33.3226 48.5961 33.379 49.0897C33.6053 48.6879 33.727 48.508 34.0011 47.9739C34.0711 47.7399 34.1785 47.5188 34.3191 47.3191C35 45.8445 35.4636 44.279 35.6953 42.6715C35.8273 40.6861 35.7717 38.6927 35.5292 36.7177C35.2895 34.8086 35.2183 32.8821 35.3165 30.9605C35.6295 28.3005 37.6907 24.6443 36.6097 21.9557M40.3079 22.5052C40.9128 20.2222 42.0954 18.1426 42.1387 15.997C42.1447 14.5072 41.9321 13.0245 41.5076 11.5964C41.3439 12.5304 41.1773 13.4641 41.0076 14.3974C40.845 15.2998 40.7293 16.2089 40.5107 17.1001C39.9049 19.5698 38.7732 21.8649 37.9777 24.2723C34.9635 33.3975 37.9279 35.3685 38.3852 38.9953C38.4501 39.71 38.444 40.4293 38.3669 41.1428C38.7564 40.493 39.1452 39.8425 39.5333 39.1911C41.2784 33.1987 39.2444 26.5244 40.3093 22.5049M55.0481 12.6089C55.8938 11.1968 56.1557 10.959 56.3896 10.5621C54.7485 11.26 53.3567 12.4378 52.3969 13.9408C48.1115 20.0201 47.3278 24.2974 44.7261 30.591C43.8659 32.6701 43.3714 33.11 43.0602 34.0353C43.1969 33.9332 43.3193 33.798 43.4303 33.7006C49.5453 28.3422 51.0104 19.3536 55.049 12.6094M39.3112 42.6975C40.2943 42.3166 41.2128 41.7866 42.0345 41.126C43.2754 40.1372 44.459 39.0786 45.5795 37.9552C46.4783 36.8353 47.5452 35.8614 48.7422 35.0681C50.5349 34.1833 52.1965 33.0544 53.6794 31.7136C55.357 30.0067 56.5555 27.888 57.1543 25.5708C57.181 25.3626 57.1977 25.0633 57.212 24.8209C57.1114 24.9941 57.0198 25.1828 56.9237 25.3638C54.3708 30.1883 49.0668 32.201 45.5382 34.8671C44.1374 35.8798 42.9203 37.1248 41.9396 38.5483C41.0246 40.1513 39.8701 41.6053 38.5162 42.8599C38.7894 42.8525 39.0592 42.7962 39.3126 42.6936M31.3155 53.9339C31.3395 53.996 31.3061 53.9612 31.3155 53.9339ZM31.3155 53.9339C31.3215 53.9485 31.3201 53.9452 31.3155 53.9339ZM31.3618 53.8112C32.0953 53.4886 32.8118 53.1286 33.5084 52.7325C36.6313 51.3705 42.1011 52.4875 46.9209 48.0832C49.7281 45.5176 51.5962 41.953 56.07 40.3901L56.049 40.3764C55.7537 40.2849 55.4396 40.2721 55.1378 40.3393C50.5433 41.0376 47.8849 45.7985 43.5213 47.6454C41.5885 48.324 39.6198 48.8955 37.624 49.3573C35.5084 49.889 33.5939 51.0266 32.1155 52.6307C31.8561 53.03 31.6035 53.4226 31.3576 53.8085M31.1764 59.2849C34.5718 58.4161 38.3775 58.1168 41.9446 55.7477C44.5685 54.0115 45.7946 52.3682 49.7893 49.585C51.2733 48.5531 51.1779 48.676 51.4869 48.4079C49.7651 48.276 48.1222 49.336 46.7833 50.2952C44.6123 51.8448 43.9749 52.5176 41.3593 53.2272C40.45 53.4717 39.5241 53.6648 38.6118 53.9121C35.3684 54.7986 33.3187 54.9071 30.4119 57.0238C29.3089 57.8212 28.3091 58.7521 27.4351 59.7955C27.3073 59.9924 27.1779 60.1867 27.0469 60.3784C28.04 60.2492 29.5766 59.6964 31.1748 59.2875M35.3362 47.5551C37.9526 45.9607 41.4754 46.1851 44.3588 44.806C49.8283 42.1933 52.3333 34.4875 58.452 32.8442C58.3008 32.7454 58.1349 32.671 57.9605 32.6239C56.577 32.7304 55.2462 33.2007 54.1031 33.9871C50.0973 36.4053 47.5948 40.3607 43.7018 42.7137C41.4073 44.1008 38.5242 44.719 35.9815 46.5176C35.7657 46.8633 35.5495 47.2089 35.3331 47.5543M21.6369 69.8657C22.3969 69.6504 23.1949 69.6043 23.9747 69.7307C26.1619 69.9192 29.3762 70.8665 32.6031 70.0386C37.4591 68.7872 39.8385 64.2794 45.3285 63.9217C45.0783 63.5098 43.7203 63.5177 43.2263 63.5416C39.4776 63.7312 36.3595 67.0087 32.3438 67.5211C30.4346 67.6277 28.5209 67.6308 26.6113 67.5304C24.4909 67.467 22.4155 68.1502 20.7474 69.4609C20.5694 69.7056 20.3974 69.941 20.2314 70.1672C20.7057 70.0959 21.175 69.9947 21.6366 69.8643M30.5211 51.0557C31.723 44.7976 29.2804 42.1885 29.4852 38.066C29.6645 34.4841 32.1648 31.3696 32.5503 28.0433C32.6921 26.798 32.6109 25.5373 32.3106 24.3205C32.2804 24.4643 32.2602 24.611 32.2344 24.7482C31.4164 28.7622 29.0129 31.4338 27.5035 36.0844C27.6588 38.5127 27.4663 40.9507 26.9319 43.3246C27.4684 47.597 28.8752 51.1211 27.7164 58.0383C27.7273 58.0215 27.7371 58.0064 27.7426 57.998C29.1081 55.8836 30.0516 53.525 30.5211 51.0521M26.8698 59.439C27.1832 58.2451 27.2166 56.995 26.9675 55.7862C26.7235 54.1543 26.2004 52.5868 25.9227 50.9665C25.1746 46.6378 26.9018 42.4341 27.0123 38.1299C27.1109 36.5665 26.856 35.0011 26.2665 33.5498C26.1541 33.3101 26.0098 33.0868 25.8376 32.8858C25.8376 32.8858 25.7033 32.7986 25.6824 32.785C25.5717 32.7213 25.4539 32.6709 25.3315 32.6346C27.3795 37.7409 23.4174 43.4933 23.4271 48.8944C23.4351 53.3138 26.6021 55.377 26.6399 59.7322C26.6404 59.7481 26.6416 59.7608 26.6418 59.7752C26.7148 59.6628 26.7879 59.5504 26.8598 59.4396M24.2045 63.3602C24.3406 63.0361 24.4402 62.6979 24.5016 62.3518C24.7222 60.7515 24.4273 59.1224 23.6598 57.7009C22.8948 56.153 21.7953 54.7969 21.0466 53.2405C20.3365 51.6708 19.995 49.9594 20.0482 48.2374C19.9771 45.9721 20.04 43.5446 18.6878 41.6391C18.515 41.3435 18.2575 41.1064 17.9487 40.9586L17.9354 40.9571C18.3532 41.7888 18.6259 42.6857 18.7418 43.6092C19.3146 48.7367 16.5163 51.9464 20.663 57.4675C21.9962 59.2426 23.2711 60.4573 23.6695 61.7779C23.7902 62.3298 23.9617 62.8693 24.1818 63.3896C24.1889 63.3787 24.196 63.3678 24.2031 63.3569M25.2495 32.443C25.2487 32.4452 25.2474 32.4472 25.2457 32.4489C25.2457 32.4489 25.2457 32.4489 25.2495 32.443ZM37.6477 42.3327C37.7935 41.3877 37.8622 40.4325 37.8531 39.4764C37.7056 36.6474 35.6324 34.8306 36.1539 29.6934C35.5422 32.04 35.9352 33.6923 36.068 36.1014C36.2717 39.8283 36.8493 41.8904 35.5465 45.784C36.9416 43.5097 37.1233 43.2006 37.6477 42.3327ZM41.6226 10.9529C41.6335 10.9362 41.6254 10.9285 41.6226 10.9529ZM42.1535 59.8836C43.9609 58.2159 45.5493 56.3308 47.7968 55.1851C47.1842 55.206 46.5775 55.3108 45.9934 55.4966C42.0883 56.6046 40.8719 60.1797 36.6814 60.9282C34.9269 61.2416 33.2012 61.0368 31.5161 61.3094C28.3113 61.9187 25.3956 63.5642 23.2175 65.9927C23.1329 66.1143 23.0491 66.2341 22.9662 66.352C31.9399 62.1263 35.0713 66.4188 42.1535 59.8836ZM26.4898 59.9927C26.4832 59.9944 26.4766 59.9965 26.4702 59.999C26.4702 59.999 26.4816 59.998 26.4898 59.9927ZM25.8334 32.8867C25.8652 32.9205 25.8527 32.8992 25.8334 32.8867ZM26.6177 45.1343C25.7586 50.5616 26.8645 51.7095 27.4679 55.2821C27.8224 50.7785 27.2218 48.7002 26.6177 45.1343ZM24.1104 63.4995C24.0892 63.5084 24.0939 63.5102 24.1061 63.5062L24.1104 63.4995ZM14.0836 55.4544C14.5333 58.9331 17.0591 61.5628 18.3568 64.7131C19.0011 66.3071 19.4597 67.9701 19.7234 69.669C20.3185 67.877 20.5166 65.977 20.304 64.1008C20.0914 62.2246 19.4732 60.4171 18.4922 58.8037C17.4033 57.4441 16.5688 55.8989 16.0292 54.2427C15.452 51.6619 16.6093 48.8572 16.1833 46.4092C16.0192 45.4384 15.6463 44.5148 15.0904 43.7022C15.4832 46.7156 14.3451 49.3859 14.082 52.4338C13.9753 53.4379 13.9758 54.4505 14.0836 55.4544Z" stroke="black" stroke-width="0.500236"/>
</g>
</svg>
