<svg width="85" height="84" viewBox="0 0 85 84" fill="none" xmlns="http://www.w3.org/2000/svg">
<path d="M68.741 16.624C68.7335 16.6393 68.7272 16.6552 68.722 16.6714L68.7092 16.7134L68.7045 16.726C68.7002 16.7375 68.6967 16.7492 68.6938 16.7611C68.0433 18.82 67.9724 21.0182 68.4887 23.1147L59.9942 13.7186L54.6496 7.8232C54.0294 7.13937 53.1129 6.17257 52.1065 6.20896C51.8226 6.22449 51.5453 6.30039 51.293 6.43159C51.2359 6.17578 51.0875 5.94953 50.8757 5.79511C50.1036 5.27917 48.9282 6.33816 48.4109 6.81784L10.3911 42.0587C10.283 42.1557 10.1723 42.2564 10.063 42.3597C10.0329 42.3882 10.0027 42.4166 9.97438 42.4464C9.9613 42.4602 9.94781 42.4753 9.93567 42.4908C9.92162 42.5082 9.90921 42.5269 9.89858 42.5467C9.8657 42.6074 9.85203 42.6767 9.85939 42.7454C9.86675 42.814 9.89479 42.8788 9.9398 42.9312C10.1405 43.1642 10.3448 43.0308 10.5046 42.9075C10.6007 42.8327 10.6954 42.7552 10.7901 42.6777C11.1443 42.3877 11.4975 42.0914 11.8468 41.7983C13.1223 40.7269 14.3927 39.6494 15.6581 38.566C19.736 35.0891 23.8026 31.5993 27.8578 28.0967C29.5972 26.597 31.3241 25.0831 33.0386 23.5551C36.159 20.7826 39.2478 17.9804 42.3408 15.1715C44.8323 12.9074 47.3191 10.6322 49.8405 8.40312C50.1119 8.16386 50.3915 7.91009 50.68 7.6731C50.6708 7.7753 50.6599 7.8762 50.6476 7.97446C50.5859 8.48497 50.4837 8.9853 50.382 9.48874L44.6563 37.7804C44.4771 38.599 44.046 39.3409 43.4236 39.9019C42.8012 40.4629 42.0187 40.815 41.186 40.9086L10.9016 44.354C10.5827 44.3932 10.276 44.4168 9.96191 44.484C9.73975 44.5094 9.52511 44.5799 9.33112 44.6911C9.13714 44.8023 8.96788 44.952 8.83371 45.1308C8.46858 45.7606 9.00795 46.4862 9.41846 46.9373L29.7986 69.2832C30.2412 69.7693 31.0745 70.6433 31.7981 70.4582C32.0117 70.3698 32.1952 70.2215 32.3265 70.0312C32.4579 69.841 32.5314 69.6169 32.5384 69.3858L36.6286 44.8655C36.691 44.4927 36.8151 43.9377 37.1595 43.7186C37.3004 43.637 37.4583 43.5892 37.6208 43.5789L41.3016 43.2087C42.8794 42.9945 44.329 42.2246 45.3899 41.0373C46.2151 40.1689 46.7841 39.0893 47.0343 37.9178L47.5797 35.108C47.8022 33.971 48.2187 33.8324 49.2789 33.7821L72.079 32.7134C72.6308 32.6864 73.4943 32.607 73.741 32.0186C73.7938 31.8508 73.8107 31.6737 73.7904 31.4989C73.7702 31.3242 73.7133 31.1557 73.6234 31.0044C73.4204 30.6125 73.1841 30.2388 72.917 29.8875C72.5821 29.4189 72.2354 28.9601 71.9004 28.4915C71.5044 27.9377 71.1242 27.3732 70.7708 26.7911C70.6962 26.6662 70.6235 26.5414 70.5528 26.4167L73.5387 29.7067C73.9183 30.0851 74.2117 30.5409 74.3989 31.043C74.5861 31.5452 74.6627 32.0819 74.6234 32.6163C74.5605 33.2621 74.2858 33.869 73.842 34.3423L34.537 69.9579C31.1548 72.9846 28.2007 76.458 25.7562 80.2823C23.7534 83.4472 24.3517 83.768 26.3287 80.6461C28.7412 76.8736 31.6562 73.4472 34.9935 70.4614L74.2936 34.8451C74.8613 34.2613 75.2136 33.5017 75.2926 32.6911C75.3423 32.0617 75.2556 31.4289 75.0384 30.836C74.8212 30.2431 74.4785 29.7041 74.034 29.2557L69.5625 24.3094C68.6532 21.9436 68.5795 19.3381 69.3535 16.9247M73.1151 31.7567C73.0212 31.9786 72.2335 32.0302 72.0445 32.0389L49.2493 33.1061C48.7732 33.0948 48.3008 33.1927 47.8684 33.3924C47.6021 33.5695 47.3784 33.8037 47.2137 34.078C47.0491 34.3522 46.9475 34.6597 46.9163 34.9781L46.3709 37.7879C46.145 38.8353 45.6347 39.8001 44.896 40.5762C43.9469 41.6415 42.6505 42.3353 41.2376 42.534L37.5568 42.9042C36.4824 43.0129 36.129 43.7757 35.9639 44.7521L31.8683 69.273C31.8487 69.3875 31.773 69.7629 31.6263 69.8C31.4277 69.8523 31.0292 69.5285 30.89 69.4134C30.68 69.2291 30.4815 69.032 30.2958 68.8233L9.91569 46.4773C9.76447 46.312 9.26178 45.7322 9.41627 45.4667C9.60191 45.2876 9.841 45.1742 10.0971 45.1436C10.3903 45.0818 10.6801 45.0603 10.9766 45.024L41.2607 41.5821C42.2347 41.4718 43.1496 41.0589 43.8767 40.4016C44.6039 39.7443 45.1067 38.8756 45.3145 37.9176L51.0456 9.62762C51.1513 9.10618 51.2558 8.5888 51.3192 8.06035C51.3586 7.7627 51.3786 7.4628 51.379 7.16255C51.6027 7.00702 51.8623 6.91119 52.1334 6.88412C52.8609 6.85772 53.7113 7.79172 54.1509 8.27603L59.495 14.1706L68.9822 24.6663C69.3157 25.5226 69.7223 26.3487 70.1974 27.1353C70.5575 27.7365 70.947 28.3142 71.3528 28.8843C71.6877 29.3528 72.0345 29.8117 72.3694 30.2802C72.5241 30.4969 73.2369 31.4723 73.1177 31.7553" stroke="black" stroke-width="0.499913"/>
</svg>
