<svg width="72" height="71" viewBox="0 0 72 71" fill="none" xmlns="http://www.w3.org/2000/svg">
<path d="M24.1597 69.8681C31.9355 64.1161 38.7554 57.1737 44.3682 49.2968C39.8954 50.9138 35.2023 51.8398 30.4506 52.0427C26.0181 52.2551 21.5839 51.6623 17.363 50.2929C13.5529 49.0787 10.0723 47.0062 7.18929 44.2351C4.14971 41.4303 2.04329 37.7609 1.15407 33.7217C0.493886 30.4006 0.94779 26.9544 2.44541 23.9175C3.91991 20.9529 6.26566 18.51 9.16806 16.9166C12.2086 15.2468 15.7084 14.6072 19.1429 15.0937C20.059 15.2167 20.9635 15.4144 21.8473 15.6849C22.1854 13.1795 23.076 10.7805 24.4548 8.66139C26.3852 5.56482 29.2218 3.13731 32.5793 1.70842C34.4573 0.956203 36.4668 0.587261 38.4895 0.623313C40.5122 0.659365 42.5073 1.09968 44.3573 1.91835C50.4876 4.47782 54.3922 10.081 55.3508 17.6953C55.7987 21.6973 55.5509 25.7466 54.6183 29.6641C53.5218 34.3588 51.7963 38.8839 49.4886 43.1167C48.8107 44.3842 48.0814 45.6448 47.3006 46.8985C51.4126 45.0894 55.2866 42.7817 58.8355 40.0273C76.5615 26.3104 70.8913 29.9392 67.3831 33.7013C64.9637 36.3159 62.3374 38.7312 59.5298 40.9236C55.4678 44.0871 50.9848 46.6693 46.2102 48.5957C43.7246 52.3211 40.936 55.8352 37.8729 59.1023C33.8761 63.3629 29.5163 67.2679 24.8429 70.7732M5.93743 20.8267C4.94084 21.8958 4.10698 23.1057 3.46262 24.4176C0.438258 30.567 2.1284 37.6739 7.98121 43.4298C13.1716 48.5339 21.3441 51.2612 30.4019 50.9116C35.5702 50.6783 40.6627 49.579 45.4671 47.6594C46.5665 45.9819 47.5725 44.2897 48.4851 42.5829C53.1056 33.9403 55.1428 25.153 54.2215 17.8373C53.3158 10.6429 49.656 5.36086 43.9162 2.96463C35.466 -0.563109 28.6629 4.15459 25.405 9.26853C24.0673 11.3147 23.2233 13.6438 22.9398 16.072C26.8896 17.6633 28.5056 20.4978 28.8323 22.234C28.9971 22.7289 29.0002 23.2633 28.8411 23.7599C28.682 24.2566 28.369 24.6898 27.9474 24.9968C27.4234 25.2889 26.2758 25.5341 24.4737 23.8919C23.5306 22.9919 22.7979 21.8947 22.3281 20.6787C21.8583 19.4627 21.6629 18.1579 21.7559 16.8577C19.0146 15.9429 16.0691 15.8302 13.266 16.5329C10.4628 17.2356 7.91872 18.7244 5.93309 20.8241M22.885 17.2993C22.8514 18.3697 23.0437 19.4351 23.4496 20.4261C23.8554 21.4171 24.4656 22.3114 25.2403 23.0508C26.3226 24.0368 27.0645 24.1899 27.3983 24.0034C27.7321 23.817 27.8623 23.1891 27.7215 22.4398C27.3851 20.6481 25.7657 18.5841 22.8884 17.2957" stroke="black" stroke-width="0.5"/>
</svg>
