<svg width="18" height="17" viewBox="0 0 18 17" fill="none" xmlns="http://www.w3.org/2000/svg">
<path fill-rule="evenodd" clip-rule="evenodd" d="M9.17353 0.875666C9.88206 0.441459 10.6757 0.163115 11.5011 0.0593047C12.3266 -0.0445052 13.1648 0.0286198 13.9595 0.273775C17.3965 1.37724 18.4635 5.10745 17.5091 8.0756C16.0366 12.7373 9.74764 16.2146 9.48091 16.3605C9.3876 16.4114 9.28291 16.4381 9.1765 16.4381C9.07009 16.4381 8.9654 16.4114 8.87208 16.3605C8.60704 16.218 2.3638 12.7921 0.845544 8.07645C-0.113847 5.10661 0.949697 1.37556 4.38335 0.273775C5.17737 0.0188632 6.01793 -0.0593537 6.84565 0.0446497C7.67336 0.148653 8.46804 0.432339 9.17353 0.875666ZM4.77033 1.47756C1.99461 2.36944 1.29687 5.34433 2.05135 7.69036C3.23682 11.3675 7.92878 14.3407 9.17523 15.0766C10.4259 14.3331 15.15 11.327 16.2991 7.69373C17.0536 5.34517 16.3533 2.37028 13.5708 1.47756C12.8975 1.26667 12.1836 1.21723 11.4874 1.33326C10.7912 1.44928 10.1324 1.7275 9.56474 2.1452C9.45462 2.23002 9.31955 2.27646 9.18032 2.27737C9.04109 2.27828 8.90542 2.23362 8.79418 2.15026C8.22694 1.72584 7.56563 1.44322 6.86585 1.32616C6.16608 1.2091 5.44829 1.26102 4.77287 1.47756H4.77033ZM12.7554 3.15173C13.3183 3.33188 13.8148 3.67444 14.1819 4.13595C14.549 4.59745 14.7701 5.1571 14.8173 5.74391C14.8308 5.91102 14.7772 6.07667 14.6681 6.2044C14.559 6.33213 14.4034 6.4115 14.2355 6.42504C14.2177 6.42504 14.2008 6.42504 14.183 6.42504C14.0236 6.42493 13.8701 6.36514 13.7529 6.25754C13.6357 6.14994 13.5635 6.0024 13.5505 5.84422C13.5239 5.50659 13.3969 5.18449 13.1858 4.91893C12.9747 4.65336 12.689 4.45635 12.365 4.35298C12.2856 4.32752 12.212 4.28674 12.1485 4.23297C12.0849 4.17919 12.0326 4.11349 11.9945 4.03959C11.9565 3.9657 11.9334 3.88506 11.9267 3.80229C11.9199 3.71953 11.9296 3.63624 11.9552 3.5572C11.9808 3.47816 12.0217 3.40491 12.0757 3.34163C12.1297 3.27835 12.1957 3.22628 12.27 3.18839C12.3442 3.1505 12.4252 3.12754 12.5083 3.12082C12.5915 3.11409 12.6751 3.12374 12.7545 3.1492L12.7554 3.15173Z" fill="#2E2E2E"/>
</svg>
