<svg width="96" height="97" viewBox="0 0 96 97" fill="none" xmlns="http://www.w3.org/2000/svg">
<path d="M48.3106 96.0431C74.5679 96.0431 95.8537 74.7574 95.8537 48.5001C95.8537 22.2428 74.5679 0.957031 48.3106 0.957031C22.0533 0.957031 0.767578 22.2428 0.767578 48.5001C0.767578 74.7574 22.0533 96.0431 48.3106 96.0431Z" fill="#F6F5F0"/>
<path d="M68.647 35.0381C69.1512 36.9255 69.402 38.8717 69.3927 40.8253V52.6765C69.4031 54.6368 69.1501 56.5895 68.6405 58.4824H69.7899C72.4148 58.4721 74.9292 57.4247 76.7852 55.5685C78.6412 53.7124 79.6884 51.1978 79.6984 48.5729V44.9476C79.6972 42.3199 78.6529 39.8003 76.795 37.9422C74.9371 36.0841 72.4175 35.0396 69.7899 35.0381H68.6497C67.3641 30.5962 64.6732 26.6908 60.9805 23.9075C57.2877 21.1242 52.7922 19.613 48.1681 19.6006H48.1485C43.5219 19.6033 39.0217 21.1108 35.327 23.8955C31.6324 26.6803 28.9437 30.5912 27.6668 35.0381C27.1625 36.9255 26.9117 38.8717 26.9209 40.8253V58.4824H26.5248C23.8971 58.4812 21.3774 57.4367 19.5194 55.5786C17.6614 53.7204 16.6172 51.2006 16.6163 48.5729V44.9476C16.6126 43.6453 16.8663 42.3551 17.3629 41.1512C17.8596 39.9473 18.5893 38.8535 19.5101 37.9326C20.4309 37.0117 21.5247 36.2819 22.7285 35.7852C23.9323 35.2884 25.2225 35.0345 26.5248 35.0381H27.6649M49.613 76.7324H45.9867C45.5955 76.7384 45.2073 76.6643 44.8459 76.5145C44.4845 76.3648 44.1576 76.1426 43.8854 75.8617C43.6088 75.5915 43.3905 75.2674 43.244 74.9096C43.0975 74.5517 43.0258 74.1676 43.0334 73.781V73.7605C43.0329 73.6182 43.0429 73.4762 43.0632 73.3354C43.1421 72.6999 43.4315 72.1091 43.8854 71.6574C44.1605 71.3816 44.4884 71.1641 44.8494 71.0179C45.2104 70.8716 45.5972 70.7997 45.9867 70.8063H50.3261C51.0363 70.8037 51.7234 71.058 52.2607 71.5223C52.798 71.9866 53.1492 72.6296 53.2496 73.3326C56.8798 72.3983 60.2057 70.5388 62.9029 67.9356C65.6 65.3324 67.5762 62.0744 68.6386 58.4796M55.2399 42.411L55.2799 42.4604C55.4476 42.6682 55.6703 42.8249 55.9226 42.9124C56.175 42.9999 56.4468 43.0148 56.7071 42.9554L58.8867 42.4296C59.0041 42.7009 59.1132 42.9778 59.2139 43.263C59.6201 44.4068 59.8505 45.6056 59.8972 46.8185L57.6674 47.2948C57.4076 47.3533 57.1695 47.4837 56.9804 47.6712C56.7913 47.8586 56.6588 48.0955 56.5981 48.3548C56.5906 48.3818 56.5841 48.4079 56.5776 48.435L56.2606 49.7727C56.2606 49.7988 56.2532 49.8249 56.2504 49.8519C56.1964 50.112 56.217 50.3821 56.3099 50.631C56.4027 50.8799 56.564 51.0974 56.7752 51.2586L58.5296 52.6253C57.8403 53.9806 56.8898 55.1864 55.733 56.1733L53.9618 54.7265C53.7568 54.5585 53.5086 54.4519 53.2457 54.4189C52.9828 54.3859 52.7159 54.4279 52.4758 54.5401C52.4488 54.5494 52.4227 54.5587 52.3966 54.5699L51.1679 55.174C51.1474 55.1833 51.1278 55.1935 51.1083 55.2047C50.8681 55.3236 50.6658 55.5069 50.524 55.7343C50.3822 55.9617 50.3066 56.2241 50.3056 56.4921L50.3354 58.722C48.8514 59.0284 47.3202 59.0253 45.8375 58.7127L45.8664 56.4539C45.8651 56.1872 45.7893 55.9262 45.6474 55.7004C45.5056 55.4745 45.3034 55.2928 45.0638 55.1758C45.0451 55.1591 45.0246 55.1423 45.005 55.1255L43.7857 54.5419C43.7568 54.5317 43.726 54.5204 43.6925 54.5121C43.4524 54.4 43.1855 54.3582 42.9226 54.3911C42.6598 54.4241 42.4115 54.5307 42.2065 54.6985L40.4829 56.0968C39.3272 55.1303 38.3828 53.9362 37.7086 52.5889L39.462 51.212C39.6714 51.0498 39.8307 50.8319 39.9217 50.5832C40.0127 50.3345 40.0318 50.0653 39.9766 49.8063C39.9766 49.7792 39.9711 49.7531 39.9674 49.7261L39.6597 48.3884C39.6541 48.365 39.6467 48.3417 39.6401 48.3203C39.5761 48.0628 39.4408 47.8286 39.2496 47.6446C39.0585 47.4606 38.8194 47.3342 38.5597 47.2799L36.3699 46.8138C36.4194 45.3048 36.7659 43.8204 37.3898 42.4455L39.5702 42.9703C39.8298 43.0303 40.101 43.0165 40.3532 42.9305C40.6054 42.8445 40.8286 42.6898 40.9974 42.4837C41.0179 42.4623 41.0375 42.439 41.0571 42.4157L41.8895 41.3557C41.9073 41.3324 41.9231 41.3091 41.939 41.2858C42.1001 41.0765 42.1987 40.8259 42.2232 40.5629C42.2478 40.2999 42.1974 40.0353 42.0779 39.7998L41.0776 37.7583C42.0445 37.0472 43.113 36.4859 44.2471 36.0933C44.5519 35.9861 44.8549 35.8892 45.1588 35.8071L46.0911 37.7891C46.2011 38.0322 46.3776 38.2393 46.6003 38.3865C46.823 38.5336 47.0827 38.6147 47.3495 38.6206C47.3824 38.6223 47.4154 38.6223 47.4484 38.6206H48.8262C48.8526 38.6223 48.879 38.6223 48.9054 38.6206C49.1734 38.6146 49.4344 38.5336 49.6585 38.3865C49.8827 38.2395 50.061 38.0325 50.1733 37.7891L51.1055 35.796C52.5702 36.1944 53.9502 36.8558 55.1783 37.748L54.1678 39.7709C54.0516 40.0094 54.0048 40.2757 54.0328 40.5394C54.0609 40.8032 54.1625 41.0538 54.3262 41.2625C54.3421 41.2858 54.3589 41.3091 54.3757 41.3324L55.2399 42.411ZM48.1466 42.6254C47.5477 42.6163 46.9531 42.7294 46.3993 42.9578C45.8456 43.1862 45.3442 43.5251 44.9258 43.9538C44.5019 44.3741 44.1654 44.8742 43.9358 45.4253C43.7061 45.9763 43.5879 46.5674 43.5879 47.1644C43.5879 47.7613 43.7061 48.3524 43.9358 48.9034C44.1654 49.4544 44.5019 49.9546 44.9258 50.3749C45.7816 51.2257 46.9394 51.7032 48.1462 51.7032C49.3529 51.7032 50.5106 51.2257 51.3665 50.3749C51.7904 49.9546 52.1269 49.4544 52.3565 48.9034C52.5861 48.3524 52.7043 47.7613 52.7043 47.1644C52.7043 46.5674 52.5861 45.9763 52.3565 45.4253C52.1269 44.8742 51.7904 44.3741 51.3665 43.9538C50.9478 43.5254 50.4461 43.187 49.8922 42.959C49.3382 42.7311 48.7437 42.6185 48.1447 42.6282L48.1466 42.6254Z" stroke="#404040" stroke-linecap="round" stroke-linejoin="round"/>
</svg>
