<svg width="96" height="97" viewBox="0 0 96 97" fill="none" xmlns="http://www.w3.org/2000/svg">
<path d="M47.5431 96.0431C73.8004 96.0431 95.0861 74.7574 95.0861 48.5001C95.0861 22.2428 73.8004 0.957031 47.5431 0.957031C21.2857 0.957031 0 22.2428 0 48.5001C0 74.7574 21.2857 96.0431 47.5431 96.0431Z" fill="#F6F5F0"/>
<path fill-rule="evenodd" clip-rule="evenodd" d="M17.711 30.1913L17.7203 54.3562L53.3403 54.3479V30.1913C53.3463 29.9022 53.2929 29.615 53.1833 29.3474C53.0738 29.0798 52.9105 28.8375 52.7036 28.6355C52.4998 28.4274 52.256 28.2629 51.9868 28.1518C51.7176 28.0408 51.4286 27.9855 51.1375 27.9895H19.8961C19.6079 27.9901 19.3227 28.0475 19.0567 28.1586C18.7908 28.2697 18.5494 28.4322 18.3464 28.6368C18.1434 28.8413 17.9828 29.0839 17.8738 29.3507C17.7647 29.6175 17.7094 29.9032 17.711 30.1913Z" stroke="#404040" stroke-linecap="round" stroke-linejoin="round"/>
<path fill-rule="evenodd" clip-rule="evenodd" d="M31.3954 33.784L35.5438 31.3779L44.0176 36.287V46.0874L35.5438 50.9787H35.5344L27.0615 46.078V36.2898L31.3954 33.784Z" stroke="#404040" stroke-linecap="round" stroke-linejoin="round"/>
<path d="M30.5107 38.2764L35.5345 41.1784V47.3077" stroke="#404040" stroke-linecap="round" stroke-linejoin="round"/>
<path d="M39.8517 41.7182L39.8424 38.682L31.3955 33.7822" stroke="#404040" stroke-linecap="round" stroke-linejoin="round"/>
<path d="M72.1716 46.9791H60.7789C60.6855 46.9808 60.5928 46.9638 60.5061 46.9288C60.4195 46.8939 60.3408 46.8418 60.2747 46.7758C60.2087 46.7097 60.1566 46.631 60.1217 46.5444C60.0867 46.4577 60.0696 46.3649 60.0714 46.2715V40.6475" stroke="#404040" stroke-linecap="round" stroke-linejoin="round"/>
<path d="M74.5086 65.3432H75.1807C75.76 65.34 76.3149 65.109 76.7253 64.7001C77.1357 64.2913 77.3688 63.7374 77.3742 63.158V50.0315C77.353 49.2019 77.1697 48.3846 76.8344 47.6255L72.2172 37.8073C72.1103 37.6078 71.9732 37.4261 71.8107 37.2685C71.4275 36.872 70.9032 36.6428 70.3518 36.6309H57.2598" stroke="#404040" stroke-linecap="round" stroke-linejoin="round"/>
<path fill-rule="evenodd" clip-rule="evenodd" d="M69.1643 59.6631C68.228 58.7277 66.9963 58.1458 65.6791 58.0166C64.3619 57.8874 63.0406 58.2188 61.9403 58.9543C60.84 59.6899 60.0287 60.7842 59.6447 62.0508C59.2606 63.3174 59.3275 64.6779 59.8339 65.9007C60.3404 67.1235 61.255 68.133 62.4222 68.7571C63.5893 69.3812 64.9368 69.5814 66.235 69.3236C67.5332 69.0657 68.7018 68.3659 69.5419 67.3432C70.382 66.3204 70.8416 65.0381 70.8424 63.7145C70.8529 62.9606 70.7095 62.2125 70.421 61.5158C70.1325 60.8192 69.7049 60.1888 69.1643 59.6631Z" stroke="#404040" stroke-linecap="round" stroke-linejoin="round"/>
<path fill-rule="evenodd" clip-rule="evenodd" d="M26.8308 63.7145C26.8301 65.042 27.2899 66.3287 28.1316 67.3552C28.9734 68.3816 30.1452 69.0844 31.4472 69.3437C32.7491 69.603 34.1007 69.4028 35.2715 68.7771C36.4423 68.1514 37.3599 67.139 37.8679 65.9126C38.3758 64.6861 38.4428 63.3214 38.0572 62.0511C37.6716 60.7808 36.8574 59.6836 35.7534 58.9464C34.6494 58.2092 33.3239 57.8777 32.0029 58.0083C30.6818 58.139 29.4469 58.7238 28.5088 59.6631C27.967 60.1878 27.5386 60.818 27.25 61.5149C26.9613 62.2117 26.8187 62.9603 26.8308 63.7145Z" stroke="#404040" stroke-linecap="round" stroke-linejoin="round"/>
<path d="M17.7203 58.4258L17.7109 63.1801C17.7219 63.7422 17.95 64.2782 18.3475 64.6758C18.7449 65.0734 19.2808 65.3018 19.8429 65.313H23.2567" stroke="#404040" stroke-linecap="round" stroke-linejoin="round"/>
<path d="M41.9385 65.3428H55.7549" stroke="#404040" stroke-linecap="round" stroke-linejoin="round"/>
</svg>
