<svg width="96" height="97" viewBox="0 0 96 97" fill="none" xmlns="http://www.w3.org/2000/svg">
<path d="M47.8477 0.957031C57.2509 0.957031 66.4428 3.74538 74.2612 8.96948C82.0796 14.1936 88.1734 21.6188 91.7718 30.3061C95.3702 38.9935 96.3117 48.5528 94.4772 57.7753C92.6428 66.9977 88.1148 75.4691 81.4657 82.1181C74.8167 88.7671 66.3454 93.2951 57.1229 95.1296C47.9005 96.9641 38.3412 96.0225 29.6538 92.4241C20.9664 88.8257 13.5412 82.732 8.31713 74.9136C3.09304 67.0952 0.304688 57.9032 0.304688 48.5001C0.304687 35.8909 5.31367 23.7981 14.2297 14.8821C23.1458 5.96602 35.2385 0.957031 47.8477 0.957031Z" fill="#F6F5F0"/>
<path d="M54.6861 47.6867C53.4559 46.5147 51.8114 45.8778 50.1126 45.9154H44.7403C44.455 45.9198 44.1968 45.9319 43.9656 45.9518C43.8724 45.9621 43.7922 45.9751 43.7111 45.9882L43.5554 46.0161C43.2565 46.0332 42.9702 46.1422 42.7355 46.328C42.5007 46.5139 42.3291 46.7676 42.2438 47.0546H42.2531C42.1845 47.3961 42.2009 47.7492 42.3011 48.0829C42.4012 48.4165 42.582 48.7203 42.8274 48.9675C42.9917 49.1526 43.1713 49.3235 43.3643 49.4784L50.1033 54.3054C52.2164 56.0232 53.0426 57.5688 52.5821 58.9422C52.0445 60.532 50.9116 61.045 49.1832 60.4813L32.2272 53.0833C28.2043 51.2447 24.7902 48.2954 22.3867 44.5824L19.8809 40.5365M27.6528 22.3975L32.7641 30.1414C33.4329 31.0383 34.285 31.7825 35.2637 32.3245C36.2424 32.8665 37.3253 33.1938 38.4404 33.2848L52.1989 35.1614L52.3901 35.1977C56.2644 35.795 59.5836 38.5373 62.348 43.4246C62.5257 43.7403 62.705 44.0563 62.8859 44.3726C63.4893 45.4291 64.1089 46.4919 64.7447 47.5608C64.7708 47.6037 64.7941 47.6456 64.8174 47.6885M54.2759 62.9228H55.6239M43.3243 61.6699V62.9265H46.2402M52.5998 51.5376H74.3027C74.5401 51.5339 74.7758 51.5789 74.9951 51.6698C75.2145 51.7607 75.4129 51.8956 75.578 52.0662C75.7525 52.2333 75.8909 52.4342 75.9849 52.6567C76.0788 52.8792 76.1263 53.1186 76.1243 53.3601V72.5116C76.1136 72.9916 75.9182 73.449 75.5787 73.7885C75.2392 74.128 74.7818 74.3234 74.3018 74.3341H45.1467C44.9052 74.336 44.6658 74.2886 44.4433 74.1947C44.2208 74.1007 44.0198 73.9622 43.8528 73.7878C43.6822 73.6226 43.5474 73.4242 43.4565 73.2049C43.3655 72.9856 43.3206 72.7499 43.3243 72.5125V62.9228M76.1252 68.4229H71.6814M67.3987 68.4229H43.3243M59.5793 62.9228H76.1252" stroke="#404040" stroke-linecap="round" stroke-linejoin="round"/>
</svg>
