<svg width="96" height="97" viewBox="0 0 96 97" fill="none" xmlns="http://www.w3.org/2000/svg">
<path d="M48.0792 0.957031C57.4823 0.957031 66.6743 3.74538 74.4927 8.96948C82.3111 14.1936 88.4048 21.6188 92.0032 30.3061C95.6016 38.9935 96.5432 48.5528 94.7087 57.7753C92.8742 66.9977 88.3462 75.4691 81.6972 82.1181C75.0482 88.7671 66.5768 93.2951 57.3544 95.1296C48.1319 96.9641 38.5726 96.0225 29.8852 92.4241C21.1979 88.8257 13.7727 82.732 8.54858 74.9136C3.32448 67.0952 0.536133 57.9032 0.536133 48.5001C0.536133 35.8909 5.54512 23.7981 14.4612 14.8821C23.3772 5.96602 35.47 0.957031 48.0792 0.957031Z" fill="#F6F5F0"/>
<path d="M71.8046 47.9228V39.6643M42.0584 55.7348C42.0611 56.7704 41.7044 57.7749 41.0493 58.5769C40.3942 59.379 39.4812 59.9289 38.4659 60.1331C37.4506 60.3372 36.3959 60.1829 35.4817 59.6964C34.5675 59.2098 33.8503 58.4213 33.4525 57.4652C33.0547 56.509 33.0008 55.4445 33.3001 54.4531C33.5994 53.4616 34.2332 52.6047 35.0937 52.0284C35.9541 51.4521 36.9879 51.1921 38.0186 51.2927C39.0493 51.3934 40.0132 51.8484 40.7459 52.5802C41.1685 52.9885 41.5029 53.4791 41.7287 54.0217C41.9544 54.5642 42.0666 55.1472 42.0584 55.7348ZM42.0584 55.7348H64.2395C67.4537 55.7348 70.5362 54.458 72.809 52.1853C75.0817 49.9126 76.3584 46.8301 76.3584 43.616C76.3584 40.4019 75.0817 37.3194 72.809 35.0467C70.5362 32.774 67.4537 31.4972 64.2395 31.4972H50.3076M50.3076 31.4972L60.2478 41.5334M50.3076 31.4972L60.2478 21.4609M71.7859 57.4613V62.8877L49.0622 76.0021H49.0436L26.3291 62.8719V36.6235L49.0622 23.4792L50.9919 24.5978M30.1969 38.8235L49.0436 49.7229V51.5286M49.0436 59.8161V71.4287" stroke="#404040" stroke-linecap="round" stroke-linejoin="round"/>
</svg>
