<svg width="27" height="13" viewBox="0 0 27 13" fill="none" xmlns="http://www.w3.org/2000/svg">
<g clip-path="url(#clip0_2010_2113)">
<path d="M20.2404 0.00292969C16.7134 0.00292969 13.8214 2.6008 13.5126 5.91285H17.6177C17.8948 4.76467 18.9623 3.90735 20.242 3.90735C21.7323 3.90735 22.9407 5.06923 22.9407 6.50217C22.9407 7.93511 21.7323 9.09547 20.242 9.09547C18.9639 9.09547 17.8964 8.23966 17.6177 7.09149H13.5126C13.823 10.4035 16.7149 13.0014 20.2404 13.0014C23.9733 13.0014 26.9999 10.0914 26.9999 6.50217C26.9999 2.91297 23.9733 0.00292969 20.2404 0.00292969Z" fill="white"/>
<path d="M9.38368 7.09301C9.10493 8.24119 8.03906 9.09699 6.75938 9.09699C5.26906 9.09699 4.06065 7.93511 4.06065 6.50369C4.06065 5.07227 5.26906 3.90887 6.75938 3.90887C8.03748 3.90887 9.10493 4.76467 9.38368 5.91437H13.4888C13.1784 2.6008 10.2864 0.00292969 6.75938 0.00292969C3.02645 0.00292969 -0.00012207 2.91297 -0.00012207 6.50369C-0.00012207 10.0944 3.02645 13.0029 6.75938 13.0029C10.2848 13.0029 13.1784 10.4051 13.4872 7.09301H9.38209H9.38368Z" fill="#FFDE2F"/>
</g>
<defs>
<clipPath id="clip0_2010_2113">
<rect width="27" height="13" fill="white" transform="translate(-0.00012207 0.00292969)"/>
</clipPath>
</defs>
</svg>
