<svg width="37" height="12" viewBox="0 0 37 12" fill="none" xmlns="http://www.w3.org/2000/svg">
<g clip-path="url(#clip0_2010_2146)">
<path fill-rule="evenodd" clip-rule="evenodd" d="M11.6191 5.5694V6.45963C11.6191 8.10782 11.1015 9.44316 10.0674 10.4651C9.03378 11.4876 7.69816 11.998 6.06053 11.998C4.31511 11.998 2.86806 11.4185 1.72146 10.2596C0.574342 9.10003 0 7.68502 0 6.01451C0 4.34401 0.568614 2.91041 1.70532 1.74557C2.84151 0.5802 4.25055 -0.00195312 5.93087 -0.00195312C6.98687 -0.00195312 7.9507 0.242912 8.82341 0.73105C9.69664 1.22025 10.3741 1.87198 10.8599 2.68466L8.95202 3.80541C8.68334 3.33321 8.27719 2.94812 7.732 2.65173C7.18838 2.35534 6.58176 2.20662 5.91421 2.20662C4.83738 2.20662 3.95114 2.56727 3.25599 3.28647C2.56137 4.00566 2.21353 4.91554 2.21353 6.01451C2.21353 7.11349 2.56657 8.00106 3.27213 8.70963C3.97821 9.41819 4.91237 9.77248 6.07667 9.77248C6.93792 9.77248 7.65234 9.57754 8.21783 9.18767C8.78332 8.79727 9.1676 8.26133 9.37276 7.58038H5.94701V5.5694H11.6191Z" fill="#A9E464"/>
<path fill-rule="evenodd" clip-rule="evenodd" d="M16.7388 5.15821C16.5555 5.12527 16.3774 5.10881 16.2045 5.10881C15.7744 5.10881 15.4083 5.2246 15.1058 5.45513C14.6861 5.78445 14.4763 6.25187 14.4763 6.85633V11.7685H12.3424V6.85633C12.3424 6.25187 12.4424 5.70265 12.6418 5.20814C12.8412 4.71362 13.1292 4.29613 13.5062 3.95512C13.8837 3.61465 14.3466 3.36766 14.896 3.21362C15.2412 3.11483 15.6119 3.06543 16.0108 3.06543C16.2482 3.06543 16.4904 3.0819 16.7388 3.11536V5.15874V5.15821Z" fill="white"/>
<path fill-rule="evenodd" clip-rule="evenodd" d="M19.4589 9.27846C19.8734 9.7071 20.3935 9.92116 21.0179 9.92116C21.6422 9.92116 22.165 9.7071 22.5847 9.27846C23.0044 8.84981 23.2153 8.3059 23.2153 7.64673C23.2153 6.98756 23.0044 6.44312 22.5847 6.01447C22.165 5.58582 21.6422 5.37123 21.0179 5.37123C20.3935 5.37123 19.8734 5.58582 19.4589 6.01447C19.0439 6.44312 18.8371 6.98703 18.8371 7.64673C18.8371 8.30643 19.0439 8.84981 19.4589 9.27846ZM24.0557 10.737C23.2262 11.5784 22.2129 11.998 21.0179 11.998C19.8229 11.998 18.8116 11.5784 17.9879 10.737C17.1636 9.89726 16.7517 8.86681 16.7517 7.64673C16.7517 6.42665 17.1636 5.3962 17.9879 4.5559C18.8122 3.71507 19.8223 3.29492 21.0179 3.29492C22.2134 3.29492 23.2262 3.71507 24.0557 4.5559C24.8852 5.39673 25.2997 6.42665 25.2997 7.64673C25.2997 8.86681 24.8857 9.89673 24.0557 10.737Z" fill="white"/>
<path fill-rule="evenodd" clip-rule="evenodd" d="M34.9999 3.52539H36.9999L34.6443 11.768H32.6L31.0727 6.77238L29.5434 11.768H27.5012L25.1262 3.52539H27.3293L28.7134 8.5863L30.1839 3.52539H32.1574L33.6284 8.60276L34.9999 3.52539Z" fill="white"/>
</g>
<defs>
<clipPath id="clip0_2010_2146">
<rect width="37" height="12" fill="white" transform="translate(0 -0.00195312)"/>
</clipPath>
</defs>
</svg>
